<svg width="227" height="176" viewBox="0 0 227 176" fill="none" xmlns="http://www.w3.org/2000/svg">
<rect width="227" height="176" rx="30" fill="#FFD4D0"/>
<rect y="132" width="227" height="44" rx="22" fill="#FFA097"/>
<path d="M77.2227 33.5625V62H73.5117V33.5625H77.2227ZM86.3633 33.5625V36.6484H64.3906V33.5625H86.3633ZM87.125 51.668V51.2188C87.125 49.6953 87.3464 48.2826 87.7891 46.9805C88.2318 45.6654 88.8698 44.526 89.7031 43.5625C90.5365 42.5859 91.5456 41.8307 92.7305 41.2969C93.9154 40.75 95.2435 40.4766 96.7148 40.4766C98.1992 40.4766 99.5339 40.75 100.719 41.2969C101.917 41.8307 102.932 42.5859 103.766 43.5625C104.612 44.526 105.257 45.6654 105.699 46.9805C106.142 48.2826 106.363 49.6953 106.363 51.2188V51.668C106.363 53.1914 106.142 54.6042 105.699 55.9062C105.257 57.2083 104.612 58.3477 103.766 59.3242C102.932 60.2878 101.923 61.043 100.738 61.5898C99.5664 62.1237 98.2383 62.3906 96.7539 62.3906C95.2695 62.3906 93.9349 62.1237 92.75 61.5898C91.5651 61.043 90.5495 60.2878 89.7031 59.3242C88.8698 58.3477 88.2318 57.2083 87.7891 55.9062C87.3464 54.6042 87.125 53.1914 87.125 51.668ZM90.7383 51.2188V51.668C90.7383 52.7227 90.862 53.7188 91.1094 54.6562C91.3568 55.5807 91.7279 56.401 92.2227 57.1172C92.7305 57.8333 93.362 58.3997 94.1172 58.8164C94.8724 59.2201 95.7513 59.4219 96.7539 59.4219C97.7435 59.4219 98.6094 59.2201 99.3516 58.8164C100.107 58.3997 100.732 57.8333 101.227 57.1172C101.721 56.401 102.092 55.5807 102.34 54.6562C102.6 53.7188 102.73 52.7227 102.73 51.668V51.2188C102.73 50.1771 102.6 49.194 102.34 48.2695C102.092 47.332 101.715 46.5052 101.207 45.7891C100.712 45.0599 100.087 44.487 99.332 44.0703C98.5898 43.6536 97.7174 43.4453 96.7148 43.4453C95.7253 43.4453 94.8529 43.6536 94.0977 44.0703C93.3555 44.487 92.7305 45.0599 92.2227 45.7891C91.7279 46.5052 91.3568 47.332 91.1094 48.2695C90.862 49.194 90.7383 50.1771 90.7383 51.2188ZM118.414 48.4258V51.3945H108.883V48.4258H118.414ZM135.27 57.8984V32H138.902V62H135.582L135.27 57.8984ZM121.051 51.668V51.2578C121.051 49.6432 121.246 48.1784 121.637 46.8633C122.04 45.5352 122.607 44.3958 123.336 43.4453C124.078 42.4948 124.957 41.7656 125.973 41.2578C127.001 40.737 128.147 40.4766 129.41 40.4766C130.738 40.4766 131.897 40.7109 132.887 41.1797C133.889 41.6354 134.736 42.306 135.426 43.1914C136.129 44.0638 136.682 45.1185 137.086 46.3555C137.49 47.5924 137.77 48.9922 137.926 50.5547V52.3516C137.783 53.901 137.503 55.2943 137.086 56.5312C136.682 57.7682 136.129 58.8229 135.426 59.6953C134.736 60.5677 133.889 61.2383 132.887 61.707C131.884 62.1628 130.712 62.3906 129.371 62.3906C128.134 62.3906 127.001 62.1237 125.973 61.5898C124.957 61.056 124.078 60.3073 123.336 59.3438C122.607 58.3802 122.04 57.2474 121.637 55.9453C121.246 54.6302 121.051 53.2044 121.051 51.668ZM124.684 51.2578V51.668C124.684 52.7227 124.788 53.7122 124.996 54.6367C125.217 55.5612 125.556 56.375 126.012 57.0781C126.467 57.7812 127.047 58.3346 127.75 58.7383C128.453 59.1289 129.293 59.3242 130.27 59.3242C131.467 59.3242 132.451 59.0703 133.219 58.5625C134 58.0547 134.625 57.3841 135.094 56.5508C135.562 55.7174 135.927 54.8125 136.188 53.8359V49.1289C136.031 48.4128 135.803 47.7227 135.504 47.0586C135.217 46.3815 134.84 45.7826 134.371 45.2617C133.915 44.7279 133.349 44.3047 132.672 43.9922C132.008 43.6797 131.22 43.5234 130.309 43.5234C129.319 43.5234 128.466 43.7318 127.75 44.1484C127.047 44.5521 126.467 45.112 126.012 45.8281C125.556 46.5312 125.217 47.3516 124.996 48.2891C124.788 49.2135 124.684 50.2031 124.684 51.2578ZM143.57 51.668V51.2188C143.57 49.6953 143.792 48.2826 144.234 46.9805C144.677 45.6654 145.315 44.526 146.148 43.5625C146.982 42.5859 147.991 41.8307 149.176 41.2969C150.361 40.75 151.689 40.4766 153.16 40.4766C154.645 40.4766 155.979 40.75 157.164 41.2969C158.362 41.8307 159.378 42.5859 160.211 43.5625C161.057 44.526 161.702 45.6654 162.145 46.9805C162.587 48.2826 162.809 49.6953 162.809 51.2188V51.668C162.809 53.1914 162.587 54.6042 162.145 55.9062C161.702 57.2083 161.057 58.3477 160.211 59.3242C159.378 60.2878 158.368 61.043 157.184 61.5898C156.012 62.1237 154.684 62.3906 153.199 62.3906C151.715 62.3906 150.38 62.1237 149.195 61.5898C148.01 61.043 146.995 60.2878 146.148 59.3242C145.315 58.3477 144.677 57.2083 144.234 55.9062C143.792 54.6042 143.57 53.1914 143.57 51.668ZM147.184 51.2188V51.668C147.184 52.7227 147.307 53.7188 147.555 54.6562C147.802 55.5807 148.173 56.401 148.668 57.1172C149.176 57.8333 149.807 58.3997 150.562 58.8164C151.318 59.2201 152.197 59.4219 153.199 59.4219C154.189 59.4219 155.055 59.2201 155.797 58.8164C156.552 58.3997 157.177 57.8333 157.672 57.1172C158.167 56.401 158.538 55.5807 158.785 54.6562C159.046 53.7188 159.176 52.7227 159.176 51.668V51.2188C159.176 50.1771 159.046 49.194 158.785 48.2695C158.538 47.332 158.16 46.5052 157.652 45.7891C157.158 45.0599 156.533 44.487 155.777 44.0703C155.035 43.6536 154.163 43.4453 153.16 43.4453C152.171 43.4453 151.298 43.6536 150.543 44.0703C149.801 44.487 149.176 45.0599 148.668 45.7891C148.173 46.5052 147.802 47.332 147.555 48.2695C147.307 49.194 147.184 50.1771 147.184 51.2188ZM102.027 105.934V109H87.8086V105.934H102.027ZM88.5508 80.5625V109H84.7812V80.5625H88.5508ZM109.723 87.8672V109H106.09V87.8672H109.723ZM105.816 82.2617C105.816 81.6758 105.992 81.181 106.344 80.7773C106.708 80.3737 107.242 80.1719 107.945 80.1719C108.635 80.1719 109.163 80.3737 109.527 80.7773C109.905 81.181 110.094 81.6758 110.094 82.2617C110.094 82.8216 109.905 83.3034 109.527 83.707C109.163 84.0977 108.635 84.293 107.945 84.293C107.242 84.293 106.708 84.0977 106.344 83.707C105.992 83.3034 105.816 82.8216 105.816 82.2617ZM127.828 103.395C127.828 102.874 127.711 102.392 127.477 101.949C127.255 101.493 126.793 101.083 126.09 100.719C125.4 100.341 124.358 100.016 122.965 99.7422C121.793 99.4948 120.732 99.2018 119.781 98.8633C118.844 98.5247 118.043 98.1146 117.379 97.6328C116.728 97.151 116.227 96.5846 115.875 95.9336C115.523 95.2826 115.348 94.5208 115.348 93.6484C115.348 92.8151 115.53 92.0273 115.895 91.2852C116.272 90.543 116.799 89.8854 117.477 89.3125C118.167 88.7396 118.993 88.2904 119.957 87.9648C120.921 87.6393 121.995 87.4766 123.18 87.4766C124.872 87.4766 126.318 87.776 127.516 88.375C128.714 88.974 129.632 89.7747 130.27 90.7773C130.908 91.7669 131.227 92.8672 131.227 94.0781H127.613C127.613 93.4922 127.438 92.9258 127.086 92.3789C126.747 91.819 126.246 91.3568 125.582 90.9922C124.931 90.6276 124.13 90.4453 123.18 90.4453C122.177 90.4453 121.363 90.6016 120.738 90.9141C120.126 91.2135 119.677 91.5977 119.391 92.0664C119.117 92.5352 118.98 93.0299 118.98 93.5508C118.98 93.9414 119.046 94.293 119.176 94.6055C119.319 94.9049 119.566 95.1849 119.918 95.4453C120.27 95.6927 120.764 95.9271 121.402 96.1484C122.04 96.3698 122.854 96.5911 123.844 96.8125C125.576 97.2031 127.001 97.6719 128.121 98.2188C129.241 98.7656 130.074 99.4362 130.621 100.23C131.168 101.025 131.441 101.988 131.441 103.121C131.441 104.046 131.246 104.892 130.855 105.66C130.478 106.428 129.924 107.092 129.195 107.652C128.479 108.199 127.62 108.629 126.617 108.941C125.628 109.241 124.514 109.391 123.277 109.391C121.415 109.391 119.84 109.059 118.551 108.395C117.262 107.73 116.285 106.871 115.621 105.816C114.957 104.762 114.625 103.648 114.625 102.477H118.258C118.31 103.466 118.596 104.254 119.117 104.84C119.638 105.413 120.276 105.823 121.031 106.07C121.786 106.305 122.535 106.422 123.277 106.422C124.267 106.422 125.094 106.292 125.758 106.031C126.435 105.771 126.949 105.413 127.301 104.957C127.652 104.501 127.828 103.98 127.828 103.395ZM145.035 87.8672V90.6406H133.609V87.8672H145.035ZM137.477 82.7305H141.09V103.766C141.09 104.482 141.201 105.022 141.422 105.387C141.643 105.751 141.93 105.992 142.281 106.109C142.633 106.227 143.01 106.285 143.414 106.285C143.714 106.285 144.026 106.259 144.352 106.207C144.69 106.142 144.944 106.09 145.113 106.051L145.133 109C144.846 109.091 144.469 109.176 144 109.254C143.544 109.345 142.991 109.391 142.34 109.391C141.454 109.391 140.641 109.215 139.898 108.863C139.156 108.512 138.564 107.926 138.121 107.105C137.691 106.272 137.477 105.152 137.477 103.746V82.7305Z" fill="#6E4700"/>
</svg>
