<svg width="240" height="176" viewBox="0 0 240 176" fill="none" xmlns="http://www.w3.org/2000/svg">
<rect width="240" height="176" rx="30" fill="#F46953"/>
<rect y="132" width="240" height="44" rx="22" fill="#F05654"/>
<path d="M91.5234 47.8398V58.25C91.1719 58.7708 90.612 59.3568 89.8438 60.0078C89.0755 60.6458 88.0143 61.2057 86.6602 61.6875C85.319 62.1562 83.5872 62.3906 81.4648 62.3906C79.7331 62.3906 78.138 62.0911 76.6797 61.4922C75.2344 60.8802 73.9779 59.9948 72.9102 58.8359C71.8555 57.6641 71.0352 56.2448 70.4492 54.5781C69.8763 52.8984 69.5898 50.9974 69.5898 48.875V46.668C69.5898 44.5456 69.8372 42.651 70.332 40.9844C70.8398 39.3177 71.582 37.9049 72.5586 36.7461C73.5352 35.5742 74.7331 34.6888 76.1523 34.0898C77.5716 33.4779 79.1992 33.1719 81.0352 33.1719C83.2096 33.1719 85.026 33.5495 86.4844 34.3047C87.9557 35.0469 89.1016 36.0755 89.9219 37.3906C90.7552 38.7057 91.2891 40.2031 91.5234 41.8828H87.7539C87.5846 40.8542 87.2461 39.9167 86.7383 39.0703C86.2435 38.224 85.5339 37.5469 84.6094 37.0391C83.6849 36.5182 82.4935 36.2578 81.0352 36.2578C79.7201 36.2578 78.5807 36.4987 77.6172 36.9805C76.6536 37.4622 75.8594 38.1523 75.2344 39.0508C74.6094 39.9492 74.1406 41.0365 73.8281 42.3125C73.5286 43.5885 73.3789 45.0273 73.3789 46.6289V48.875C73.3789 50.5156 73.5677 51.9805 73.9453 53.2695C74.3359 54.5586 74.8893 55.6589 75.6055 56.5703C76.3216 57.4688 77.1745 58.1523 78.1641 58.6211C79.1667 59.0898 80.2734 59.3242 81.4844 59.3242C82.8255 59.3242 83.9128 59.2135 84.7461 58.9922C85.5794 58.7578 86.2305 58.4844 86.6992 58.1719C87.168 57.8464 87.526 57.5404 87.7734 57.2539V50.8867H81.1914V47.8398H91.5234ZM100.84 44.1875V62H97.2266V40.8672H100.742L100.84 44.1875ZM107.441 40.75L107.422 44.1094C107.122 44.0443 106.836 44.0052 106.562 43.9922C106.302 43.9661 106.003 43.9531 105.664 43.9531C104.831 43.9531 104.095 44.0833 103.457 44.3438C102.819 44.6042 102.279 44.9688 101.836 45.4375C101.393 45.9062 101.042 46.4661 100.781 47.1172C100.534 47.7552 100.371 48.4583 100.293 49.2266L99.2773 49.8125C99.2773 48.5365 99.401 47.3385 99.6484 46.2188C99.9089 45.099 100.306 44.1094 100.84 43.25C101.374 42.3776 102.051 41.7005 102.871 41.2188C103.704 40.724 104.694 40.4766 105.84 40.4766C106.1 40.4766 106.4 40.5091 106.738 40.5742C107.077 40.6263 107.311 40.6849 107.441 40.75ZM122.461 58.3867V47.5078C122.461 46.6745 122.292 45.9518 121.953 45.3398C121.628 44.7148 121.133 44.2331 120.469 43.8945C119.805 43.556 118.984 43.3867 118.008 43.3867C117.096 43.3867 116.296 43.543 115.605 43.8555C114.928 44.168 114.395 44.5781 114.004 45.0859C113.626 45.5938 113.438 46.1406 113.438 46.7266H109.824C109.824 45.9714 110.02 45.2227 110.41 44.4805C110.801 43.7383 111.361 43.0677 112.09 42.4688C112.832 41.8568 113.717 41.375 114.746 41.0234C115.788 40.6589 116.947 40.4766 118.223 40.4766C119.759 40.4766 121.113 40.737 122.285 41.2578C123.47 41.7786 124.395 42.5664 125.059 43.6211C125.736 44.6628 126.074 45.9714 126.074 47.5469V57.3906C126.074 58.0938 126.133 58.8424 126.25 59.6367C126.38 60.431 126.569 61.1146 126.816 61.6875V62H123.047C122.865 61.5833 122.721 61.0299 122.617 60.3398C122.513 59.6367 122.461 58.9857 122.461 58.3867ZM123.086 49.1875L123.125 51.7266H119.473C118.444 51.7266 117.526 51.8112 116.719 51.9805C115.911 52.1367 115.234 52.3776 114.688 52.7031C114.141 53.0286 113.724 53.4388 113.438 53.9336C113.151 54.4154 113.008 54.9818 113.008 55.6328C113.008 56.2969 113.158 56.9023 113.457 57.4492C113.757 57.9961 114.206 58.4323 114.805 58.7578C115.417 59.0703 116.165 59.2266 117.051 59.2266C118.158 59.2266 119.134 58.9922 119.98 58.5234C120.827 58.0547 121.497 57.4818 121.992 56.8047C122.5 56.1276 122.773 55.4701 122.812 54.832L124.355 56.5703C124.264 57.1172 124.017 57.7227 123.613 58.3867C123.21 59.0508 122.669 59.6888 121.992 60.3008C121.328 60.8997 120.534 61.401 119.609 61.8047C118.698 62.1953 117.669 62.3906 116.523 62.3906C115.091 62.3906 113.835 62.1107 112.754 61.5508C111.686 60.9909 110.853 60.2422 110.254 59.3047C109.668 58.3542 109.375 57.293 109.375 56.1211C109.375 54.9883 109.596 53.9922 110.039 53.1328C110.482 52.2604 111.12 51.5378 111.953 50.9648C112.786 50.3789 113.789 49.9362 114.961 49.6367C116.133 49.3372 117.441 49.1875 118.887 49.1875H123.086ZM145.078 57.8984V32H148.711V62H145.391L145.078 57.8984ZM130.859 51.668V51.2578C130.859 49.6432 131.055 48.1784 131.445 46.8633C131.849 45.5352 132.415 44.3958 133.145 43.4453C133.887 42.4948 134.766 41.7656 135.781 41.2578C136.81 40.737 137.956 40.4766 139.219 40.4766C140.547 40.4766 141.706 40.7109 142.695 41.1797C143.698 41.6354 144.544 42.306 145.234 43.1914C145.938 44.0638 146.491 45.1185 146.895 46.3555C147.298 47.5924 147.578 48.9922 147.734 50.5547V52.3516C147.591 53.901 147.311 55.2943 146.895 56.5312C146.491 57.7682 145.938 58.8229 145.234 59.6953C144.544 60.5677 143.698 61.2383 142.695 61.707C141.693 62.1628 140.521 62.3906 139.18 62.3906C137.943 62.3906 136.81 62.1237 135.781 61.5898C134.766 61.056 133.887 60.3073 133.145 59.3438C132.415 58.3802 131.849 57.2474 131.445 55.9453C131.055 54.6302 130.859 53.2044 130.859 51.668ZM134.492 51.2578V51.668C134.492 52.7227 134.596 53.7122 134.805 54.6367C135.026 55.5612 135.365 56.375 135.82 57.0781C136.276 57.7812 136.855 58.3346 137.559 58.7383C138.262 59.1289 139.102 59.3242 140.078 59.3242C141.276 59.3242 142.259 59.0703 143.027 58.5625C143.809 58.0547 144.434 57.3841 144.902 56.5508C145.371 55.7174 145.736 54.8125 145.996 53.8359V49.1289C145.84 48.4128 145.612 47.7227 145.312 47.0586C145.026 46.3815 144.648 45.7826 144.18 45.2617C143.724 44.7279 143.158 44.3047 142.48 43.9922C141.816 43.6797 141.029 43.5234 140.117 43.5234C139.128 43.5234 138.275 43.7318 137.559 44.1484C136.855 44.5521 136.276 45.112 135.82 45.8281C135.365 46.5312 135.026 47.3516 134.805 48.2891C134.596 49.2135 134.492 50.2031 134.492 51.2578ZM163.105 62.3906C161.634 62.3906 160.299 62.1432 159.102 61.6484C157.917 61.1406 156.895 60.431 156.035 59.5195C155.189 58.6081 154.538 57.5273 154.082 56.2773C153.626 55.0273 153.398 53.6602 153.398 52.1758V51.3555C153.398 49.6367 153.652 48.1068 154.16 46.7656C154.668 45.4115 155.358 44.2656 156.23 43.3281C157.103 42.3906 158.092 41.681 159.199 41.1992C160.306 40.7174 161.452 40.4766 162.637 40.4766C164.147 40.4766 165.449 40.737 166.543 41.2578C167.65 41.7786 168.555 42.5078 169.258 43.4453C169.961 44.3698 170.482 45.4635 170.82 46.7266C171.159 47.9766 171.328 49.3438 171.328 50.8281V52.4492H155.547V49.5H167.715V49.2266C167.663 48.2891 167.467 47.3776 167.129 46.4922C166.803 45.6068 166.283 44.8776 165.566 44.3047C164.85 43.7318 163.874 43.4453 162.637 43.4453C161.816 43.4453 161.061 43.6211 160.371 43.9727C159.681 44.3112 159.089 44.819 158.594 45.4961C158.099 46.1732 157.715 47 157.441 47.9766C157.168 48.9531 157.031 50.0794 157.031 51.3555V52.1758C157.031 53.1784 157.168 54.1224 157.441 55.0078C157.728 55.8802 158.138 56.6484 158.672 57.3125C159.219 57.9766 159.876 58.4974 160.645 58.875C161.426 59.2526 162.311 59.4414 163.301 59.4414C164.577 59.4414 165.658 59.181 166.543 58.6602C167.428 58.1393 168.203 57.4427 168.867 56.5703L171.055 58.3086C170.599 58.9987 170.02 59.6562 169.316 60.2812C168.613 60.9062 167.747 61.4141 166.719 61.8047C165.703 62.1953 164.499 62.3906 163.105 62.3906ZM49.9219 99.957H53.6719C53.4766 101.754 52.9622 103.362 52.1289 104.781C51.2956 106.201 50.1172 107.327 48.5938 108.16C47.0703 108.98 45.1693 109.391 42.8906 109.391C41.224 109.391 39.707 109.078 38.3398 108.453C36.9857 107.828 35.8203 106.943 34.8438 105.797C33.8672 104.638 33.112 103.251 32.5781 101.637C32.0573 100.009 31.7969 98.1992 31.7969 96.207V93.375C31.7969 91.3828 32.0573 89.5794 32.5781 87.9648C33.112 86.3372 33.8737 84.944 34.8633 83.7852C35.8659 82.6263 37.0703 81.7344 38.4766 81.1094C39.8828 80.4844 41.4648 80.1719 43.2227 80.1719C45.3711 80.1719 47.1875 80.5755 48.6719 81.3828C50.1562 82.1901 51.3086 83.3099 52.1289 84.7422C52.9622 86.1615 53.4766 87.8086 53.6719 89.6836H49.9219C49.7396 88.3555 49.401 87.2161 48.9062 86.2656C48.4115 85.3021 47.7083 84.5599 46.7969 84.0391C45.8854 83.5182 44.694 83.2578 43.2227 83.2578C41.9596 83.2578 40.8464 83.4987 39.8828 83.9805C38.9323 84.4622 38.1315 85.1458 37.4805 86.0312C36.8424 86.9167 36.3607 87.9779 36.0352 89.2148C35.7096 90.4518 35.5469 91.8255 35.5469 93.3359V96.207C35.5469 97.6003 35.6901 98.9089 35.9766 100.133C36.276 101.357 36.7253 102.431 37.3242 103.355C37.9232 104.28 38.6849 105.009 39.6094 105.543C40.5339 106.064 41.6276 106.324 42.8906 106.324C44.4922 106.324 45.7682 106.07 46.7188 105.562C47.6693 105.055 48.3854 104.326 48.8672 103.375C49.362 102.424 49.7135 101.285 49.9219 99.957ZM70.7227 105.387V94.5078C70.7227 93.6745 70.5534 92.9518 70.2148 92.3398C69.8893 91.7148 69.3945 91.2331 68.7305 90.8945C68.0664 90.556 67.2461 90.3867 66.2695 90.3867C65.3581 90.3867 64.5573 90.543 63.8672 90.8555C63.1901 91.168 62.6562 91.5781 62.2656 92.0859C61.888 92.5938 61.6992 93.1406 61.6992 93.7266H58.0859C58.0859 92.9714 58.2812 92.2227 58.6719 91.4805C59.0625 90.7383 59.6224 90.0677 60.3516 89.4688C61.0938 88.8568 61.9792 88.375 63.0078 88.0234C64.0495 87.6589 65.2083 87.4766 66.4844 87.4766C68.0208 87.4766 69.375 87.737 70.5469 88.2578C71.7318 88.7786 72.6562 89.5664 73.3203 90.6211C73.9974 91.6628 74.3359 92.9714 74.3359 94.5469V104.391C74.3359 105.094 74.3945 105.842 74.5117 106.637C74.6419 107.431 74.8307 108.115 75.0781 108.688V109H71.3086C71.1263 108.583 70.9831 108.03 70.8789 107.34C70.7747 106.637 70.7227 105.986 70.7227 105.387ZM71.3477 96.1875L71.3867 98.7266H67.7344C66.7057 98.7266 65.7878 98.8112 64.9805 98.9805C64.1732 99.1367 63.4961 99.3776 62.9492 99.7031C62.4023 100.029 61.9857 100.439 61.6992 100.934C61.4128 101.415 61.2695 101.982 61.2695 102.633C61.2695 103.297 61.4193 103.902 61.7188 104.449C62.0182 104.996 62.4674 105.432 63.0664 105.758C63.6784 106.07 64.4271 106.227 65.3125 106.227C66.4193 106.227 67.3958 105.992 68.2422 105.523C69.0885 105.055 69.7591 104.482 70.2539 103.805C70.7617 103.128 71.0352 102.47 71.0742 101.832L72.6172 103.57C72.526 104.117 72.2786 104.723 71.875 105.387C71.4714 106.051 70.931 106.689 70.2539 107.301C69.5898 107.9 68.7956 108.401 67.8711 108.805C66.9596 109.195 65.931 109.391 64.7852 109.391C63.3529 109.391 62.0964 109.111 61.0156 108.551C59.9479 107.991 59.1146 107.242 58.5156 106.305C57.9297 105.354 57.6367 104.293 57.6367 103.121C57.6367 101.988 57.8581 100.992 58.3008 100.133C58.7435 99.2604 59.3815 98.5378 60.2148 97.9648C61.0482 97.3789 62.0508 96.9362 63.2227 96.6367C64.3945 96.3372 65.7031 96.1875 67.1484 96.1875H71.3477ZM83.9453 79V109H80.3125V79H83.9453ZM98.2031 106.422C99.0625 106.422 99.8568 106.246 100.586 105.895C101.315 105.543 101.914 105.061 102.383 104.449C102.852 103.824 103.118 103.115 103.184 102.32H106.621C106.556 103.57 106.133 104.736 105.352 105.816C104.583 106.884 103.574 107.75 102.324 108.414C101.074 109.065 99.7005 109.391 98.2031 109.391C96.6146 109.391 95.2279 109.111 94.043 108.551C92.8711 107.991 91.8945 107.223 91.1133 106.246C90.3451 105.27 89.7656 104.15 89.375 102.887C88.9974 101.611 88.8086 100.263 88.8086 98.8438V98.0234C88.8086 96.6042 88.9974 95.263 89.375 94C89.7656 92.724 90.3451 91.5977 91.1133 90.6211C91.8945 89.6445 92.8711 88.8763 94.043 88.3164C95.2279 87.7565 96.6146 87.4766 98.2031 87.4766C99.8568 87.4766 101.302 87.8151 102.539 88.4922C103.776 89.1562 104.746 90.0677 105.449 91.2266C106.165 92.3724 106.556 93.6745 106.621 95.1328H103.184C103.118 94.2604 102.871 93.4727 102.441 92.7695C102.025 92.0664 101.452 91.5065 100.723 91.0898C100.007 90.6602 99.1667 90.4453 98.2031 90.4453C97.0964 90.4453 96.1654 90.6667 95.4102 91.1094C94.668 91.5391 94.0755 92.125 93.6328 92.8672C93.2031 93.5964 92.8906 94.4102 92.6953 95.3086C92.513 96.194 92.4219 97.099 92.4219 98.0234V98.8438C92.4219 99.7682 92.513 100.68 92.6953 101.578C92.8776 102.477 93.1836 103.29 93.6133 104.02C94.056 104.749 94.6484 105.335 95.3906 105.777C96.1458 106.207 97.0833 106.422 98.2031 106.422ZM123.613 104.117V87.8672H127.246V109H123.789L123.613 104.117ZM124.297 99.6641L125.801 99.625C125.801 101.031 125.651 102.333 125.352 103.531C125.065 104.716 124.596 105.745 123.945 106.617C123.294 107.49 122.441 108.173 121.387 108.668C120.332 109.15 119.049 109.391 117.539 109.391C116.51 109.391 115.566 109.241 114.707 108.941C113.861 108.642 113.132 108.18 112.52 107.555C111.908 106.93 111.432 106.116 111.094 105.113C110.768 104.111 110.605 102.906 110.605 101.5V87.8672H114.219V101.539C114.219 102.49 114.323 103.277 114.531 103.902C114.753 104.514 115.046 105.003 115.41 105.367C115.788 105.719 116.204 105.966 116.66 106.109C117.129 106.253 117.611 106.324 118.105 106.324C119.642 106.324 120.859 106.031 121.758 105.445C122.656 104.846 123.301 104.046 123.691 103.043C124.095 102.027 124.297 100.901 124.297 99.6641ZM136.68 79V109H133.047V79H136.68ZM154.941 105.387V94.5078C154.941 93.6745 154.772 92.9518 154.434 92.3398C154.108 91.7148 153.613 91.2331 152.949 90.8945C152.285 90.556 151.465 90.3867 150.488 90.3867C149.577 90.3867 148.776 90.543 148.086 90.8555C147.409 91.168 146.875 91.5781 146.484 92.0859C146.107 92.5938 145.918 93.1406 145.918 93.7266H142.305C142.305 92.9714 142.5 92.2227 142.891 91.4805C143.281 90.7383 143.841 90.0677 144.57 89.4688C145.312 88.8568 146.198 88.375 147.227 88.0234C148.268 87.6589 149.427 87.4766 150.703 87.4766C152.24 87.4766 153.594 87.737 154.766 88.2578C155.951 88.7786 156.875 89.5664 157.539 90.6211C158.216 91.6628 158.555 92.9714 158.555 94.5469V104.391C158.555 105.094 158.613 105.842 158.73 106.637C158.861 107.431 159.049 108.115 159.297 108.688V109H155.527C155.345 108.583 155.202 108.03 155.098 107.34C154.993 106.637 154.941 105.986 154.941 105.387ZM155.566 96.1875L155.605 98.7266H151.953C150.924 98.7266 150.007 98.8112 149.199 98.9805C148.392 99.1367 147.715 99.3776 147.168 99.7031C146.621 100.029 146.204 100.439 145.918 100.934C145.632 101.415 145.488 101.982 145.488 102.633C145.488 103.297 145.638 103.902 145.938 104.449C146.237 104.996 146.686 105.432 147.285 105.758C147.897 106.07 148.646 106.227 149.531 106.227C150.638 106.227 151.615 105.992 152.461 105.523C153.307 105.055 153.978 104.482 154.473 103.805C154.98 103.128 155.254 102.47 155.293 101.832L156.836 103.57C156.745 104.117 156.497 104.723 156.094 105.387C155.69 106.051 155.15 106.689 154.473 107.301C153.809 107.9 153.014 108.401 152.09 108.805C151.178 109.195 150.15 109.391 149.004 109.391C147.572 109.391 146.315 109.111 145.234 108.551C144.167 107.991 143.333 107.242 142.734 106.305C142.148 105.354 141.855 104.293 141.855 103.121C141.855 101.988 142.077 100.992 142.52 100.133C142.962 99.2604 143.6 98.5378 144.434 97.9648C145.267 97.3789 146.27 96.9362 147.441 96.6367C148.613 96.3372 149.922 96.1875 151.367 96.1875H155.566ZM173.086 87.8672V90.6406H161.66V87.8672H173.086ZM165.527 82.7305H169.141V103.766C169.141 104.482 169.251 105.022 169.473 105.387C169.694 105.751 169.98 105.992 170.332 106.109C170.684 106.227 171.061 106.285 171.465 106.285C171.764 106.285 172.077 106.259 172.402 106.207C172.741 106.142 172.995 106.09 173.164 106.051L173.184 109C172.897 109.091 172.52 109.176 172.051 109.254C171.595 109.345 171.042 109.391 170.391 109.391C169.505 109.391 168.691 109.215 167.949 108.863C167.207 108.512 166.615 107.926 166.172 107.105C165.742 106.272 165.527 105.152 165.527 103.746V82.7305ZM175.977 98.668V98.2188C175.977 96.6953 176.198 95.2826 176.641 93.9805C177.083 92.6654 177.721 91.526 178.555 90.5625C179.388 89.5859 180.397 88.8307 181.582 88.2969C182.767 87.75 184.095 87.4766 185.566 87.4766C187.051 87.4766 188.385 87.75 189.57 88.2969C190.768 88.8307 191.784 89.5859 192.617 90.5625C193.464 91.526 194.108 92.6654 194.551 93.9805C194.993 95.2826 195.215 96.6953 195.215 98.2188V98.668C195.215 100.191 194.993 101.604 194.551 102.906C194.108 104.208 193.464 105.348 192.617 106.324C191.784 107.288 190.775 108.043 189.59 108.59C188.418 109.124 187.09 109.391 185.605 109.391C184.121 109.391 182.786 109.124 181.602 108.59C180.417 108.043 179.401 107.288 178.555 106.324C177.721 105.348 177.083 104.208 176.641 102.906C176.198 101.604 175.977 100.191 175.977 98.668ZM179.59 98.2188V98.668C179.59 99.7227 179.714 100.719 179.961 101.656C180.208 102.581 180.579 103.401 181.074 104.117C181.582 104.833 182.214 105.4 182.969 105.816C183.724 106.22 184.603 106.422 185.605 106.422C186.595 106.422 187.461 106.22 188.203 105.816C188.958 105.4 189.583 104.833 190.078 104.117C190.573 103.401 190.944 102.581 191.191 101.656C191.452 100.719 191.582 99.7227 191.582 98.668V98.2188C191.582 97.1771 191.452 96.194 191.191 95.2695C190.944 94.332 190.566 93.5052 190.059 92.7891C189.564 92.0599 188.939 91.487 188.184 91.0703C187.441 90.6536 186.569 90.4453 185.566 90.4453C184.577 90.4453 183.704 90.6536 182.949 91.0703C182.207 91.487 181.582 92.0599 181.074 92.7891C180.579 93.5052 180.208 94.332 179.961 95.2695C179.714 96.194 179.59 97.1771 179.59 98.2188ZM203.359 91.1875V109H199.746V87.8672H203.262L203.359 91.1875ZM209.961 87.75L209.941 91.1094C209.642 91.0443 209.355 91.0052 209.082 90.9922C208.822 90.9661 208.522 90.9531 208.184 90.9531C207.35 90.9531 206.615 91.0833 205.977 91.3438C205.339 91.6042 204.798 91.9688 204.355 92.4375C203.913 92.9062 203.561 93.4661 203.301 94.1172C203.053 94.7552 202.891 95.4583 202.812 96.2266L201.797 96.8125C201.797 95.5365 201.921 94.3385 202.168 93.2188C202.428 92.099 202.826 91.1094 203.359 90.25C203.893 89.3776 204.57 88.7005 205.391 88.2188C206.224 87.724 207.214 87.4766 208.359 87.4766C208.62 87.4766 208.919 87.5091 209.258 87.5742C209.596 87.6263 209.831 87.6849 209.961 87.75Z" fill="white"/>
</svg>
