<svg width="240" height="176" viewBox="0 0 240 176" fill="none" xmlns="http://www.w3.org/2000/svg">
<rect width="240" height="176" rx="30" fill="#F46953"/>
<rect y="132" width="240" height="44" rx="22" fill="#F05654"/>
<path d="M88.1172 58.7383L95.3438 64.4609L92.8047 66.8047L85.6953 61.1602L88.1172 58.7383ZM95.2461 46.8828V48.6797C95.2461 50.8151 94.9792 52.7292 94.4453 54.4219C93.9115 56.1146 93.1432 57.5534 92.1406 58.7383C91.138 59.9232 89.9336 60.8281 88.5273 61.4531C87.1341 62.0781 85.5716 62.3906 83.8398 62.3906C82.1602 62.3906 80.6172 62.0781 79.2109 61.4531C77.8177 60.8281 76.6068 59.9232 75.5781 58.7383C74.5625 57.5534 73.7747 56.1146 73.2148 54.4219C72.6549 52.7292 72.375 50.8151 72.375 48.6797V46.8828C72.375 44.7474 72.6484 42.8398 73.1953 41.1602C73.7552 39.4674 74.543 38.0286 75.5586 36.8438C76.5742 35.6458 77.7786 34.7344 79.1719 34.1094C80.5781 33.4844 82.1211 33.1719 83.8008 33.1719C85.5326 33.1719 87.1016 33.4844 88.5078 34.1094C89.9141 34.7344 91.1185 35.6458 92.1211 36.8438C93.1237 38.0286 93.8919 39.4674 94.4258 41.1602C94.9727 42.8398 95.2461 44.7474 95.2461 46.8828ZM91.5156 48.6797V46.8438C91.5156 45.151 91.3398 43.6536 90.9883 42.3516C90.6497 41.0495 90.1484 39.9557 89.4844 39.0703C88.8203 38.1849 88.013 37.5143 87.0625 37.0586C86.112 36.6029 85.0247 36.375 83.8008 36.375C82.6419 36.375 81.5872 36.6029 80.6367 37.0586C79.6992 37.5143 78.8919 38.1849 78.2148 39.0703C77.5378 39.9557 77.0169 41.0495 76.6523 42.3516C76.2878 43.6536 76.1055 45.151 76.1055 46.8438V48.6797C76.1055 50.3854 76.2878 51.8958 76.6523 53.2109C77.0169 54.513 77.5378 55.6133 78.2148 56.5117C78.9049 57.3971 79.7253 58.0677 80.6758 58.5234C81.6263 58.9792 82.681 59.207 83.8398 59.207C85.0638 59.207 86.151 58.9792 87.1016 58.5234C88.0521 58.0677 88.8529 57.3971 89.5039 56.5117C90.168 55.6133 90.6693 54.513 91.0078 53.2109C91.3464 51.8958 91.5156 50.3854 91.5156 48.6797ZM113.449 57.1172V40.8672H117.082V62H113.625L113.449 57.1172ZM114.133 52.6641L115.637 52.625C115.637 54.0312 115.487 55.3333 115.188 56.5312C114.901 57.7161 114.432 58.7448 113.781 59.6172C113.13 60.4896 112.277 61.1732 111.223 61.668C110.168 62.1497 108.885 62.3906 107.375 62.3906C106.346 62.3906 105.402 62.2409 104.543 61.9414C103.697 61.6419 102.967 61.1797 102.355 60.5547C101.743 59.9297 101.268 59.1159 100.93 58.1133C100.604 57.1107 100.441 55.9062 100.441 54.5V40.8672H104.055V54.5391C104.055 55.4896 104.159 56.2773 104.367 56.9023C104.589 57.5143 104.882 58.0026 105.246 58.3672C105.624 58.7188 106.04 58.9661 106.496 59.1094C106.965 59.2526 107.447 59.3242 107.941 59.3242C109.478 59.3242 110.695 59.0312 111.594 58.4453C112.492 57.8464 113.137 57.0456 113.527 56.043C113.931 55.0273 114.133 53.901 114.133 52.6641ZM126.516 40.8672V62H122.883V40.8672H126.516ZM122.609 35.2617C122.609 34.6758 122.785 34.181 123.137 33.7773C123.501 33.3737 124.035 33.1719 124.738 33.1719C125.428 33.1719 125.956 33.3737 126.32 33.7773C126.698 34.181 126.887 34.6758 126.887 35.2617C126.887 35.8216 126.698 36.3034 126.32 36.707C125.956 37.0977 125.428 37.293 124.738 37.293C124.035 37.293 123.501 37.0977 123.137 36.707C122.785 36.3034 122.609 35.8216 122.609 35.2617ZM140.773 59.4219C141.633 59.4219 142.427 59.2461 143.156 58.8945C143.885 58.543 144.484 58.0612 144.953 57.4492C145.422 56.8242 145.689 56.1146 145.754 55.3203H149.191C149.126 56.5703 148.703 57.7357 147.922 58.8164C147.154 59.8841 146.145 60.75 144.895 61.4141C143.645 62.0651 142.271 62.3906 140.773 62.3906C139.185 62.3906 137.798 62.1107 136.613 61.5508C135.441 60.9909 134.465 60.2227 133.684 59.2461C132.915 58.2695 132.336 57.1497 131.945 55.8867C131.568 54.6107 131.379 53.263 131.379 51.8438V51.0234C131.379 49.6042 131.568 48.263 131.945 47C132.336 45.724 132.915 44.5977 133.684 43.6211C134.465 42.6445 135.441 41.8763 136.613 41.3164C137.798 40.7565 139.185 40.4766 140.773 40.4766C142.427 40.4766 143.872 40.8151 145.109 41.4922C146.346 42.1562 147.316 43.0677 148.02 44.2266C148.736 45.3724 149.126 46.6745 149.191 48.1328H145.754C145.689 47.2604 145.441 46.4727 145.012 45.7695C144.595 45.0664 144.022 44.5065 143.293 44.0898C142.577 43.6602 141.737 43.4453 140.773 43.4453C139.667 43.4453 138.736 43.6667 137.98 44.1094C137.238 44.5391 136.646 45.125 136.203 45.8672C135.773 46.5964 135.461 47.4102 135.266 48.3086C135.083 49.194 134.992 50.099 134.992 51.0234V51.8438C134.992 52.7682 135.083 53.6797 135.266 54.5781C135.448 55.4766 135.754 56.2904 136.184 57.0195C136.626 57.7487 137.219 58.3346 137.961 58.7773C138.716 59.207 139.654 59.4219 140.773 59.4219ZM156.887 32V62H153.254V32H156.887ZM169.797 40.8672L160.578 50.7305L155.422 56.082L155.129 52.2344L158.82 47.8203L165.383 40.8672H169.797ZM166.496 62L158.957 51.9219L160.832 48.6992L170.754 62H166.496ZM92.5117 80.5625V109H88.7227L74.4062 87.0664V109H70.6367V80.5625H74.4062L88.7812 102.555V80.5625H92.5117ZM97.6875 98.668V98.2188C97.6875 96.6953 97.9089 95.2826 98.3516 93.9805C98.7943 92.6654 99.4323 91.526 100.266 90.5625C101.099 89.5859 102.108 88.8307 103.293 88.2969C104.478 87.75 105.806 87.4766 107.277 87.4766C108.762 87.4766 110.096 87.75 111.281 88.2969C112.479 88.8307 113.495 89.5859 114.328 90.5625C115.174 91.526 115.819 92.6654 116.262 93.9805C116.704 95.2826 116.926 96.6953 116.926 98.2188V98.668C116.926 100.191 116.704 101.604 116.262 102.906C115.819 104.208 115.174 105.348 114.328 106.324C113.495 107.288 112.486 108.043 111.301 108.59C110.129 109.124 108.801 109.391 107.316 109.391C105.832 109.391 104.497 109.124 103.312 108.59C102.128 108.043 101.112 107.288 100.266 106.324C99.4323 105.348 98.7943 104.208 98.3516 102.906C97.9089 101.604 97.6875 100.191 97.6875 98.668ZM101.301 98.2188V98.668C101.301 99.7227 101.424 100.719 101.672 101.656C101.919 102.581 102.29 103.401 102.785 104.117C103.293 104.833 103.924 105.4 104.68 105.816C105.435 106.22 106.314 106.422 107.316 106.422C108.306 106.422 109.172 106.22 109.914 105.816C110.669 105.4 111.294 104.833 111.789 104.117C112.284 103.401 112.655 102.581 112.902 101.656C113.163 100.719 113.293 99.7227 113.293 98.668V98.2188C113.293 97.1771 113.163 96.194 112.902 95.2695C112.655 94.332 112.277 93.5052 111.77 92.7891C111.275 92.0599 110.65 91.487 109.895 91.0703C109.152 90.6536 108.28 90.4453 107.277 90.4453C106.288 90.4453 105.415 90.6536 104.66 91.0703C103.918 91.487 103.293 92.0599 102.785 92.7891C102.29 93.5052 101.919 94.332 101.672 95.2695C101.424 96.194 101.301 97.1771 101.301 98.2188ZM130.305 87.8672V90.6406H118.879V87.8672H130.305ZM122.746 82.7305H126.359V103.766C126.359 104.482 126.47 105.022 126.691 105.387C126.913 105.751 127.199 105.992 127.551 106.109C127.902 106.227 128.28 106.285 128.684 106.285C128.983 106.285 129.296 106.259 129.621 106.207C129.96 106.142 130.214 106.09 130.383 106.051L130.402 109C130.116 109.091 129.738 109.176 129.27 109.254C128.814 109.345 128.26 109.391 127.609 109.391C126.724 109.391 125.91 109.215 125.168 108.863C124.426 108.512 123.833 107.926 123.391 107.105C122.961 106.272 122.746 105.152 122.746 103.746V82.7305ZM143.312 109.391C141.841 109.391 140.507 109.143 139.309 108.648C138.124 108.141 137.102 107.431 136.242 106.52C135.396 105.608 134.745 104.527 134.289 103.277C133.833 102.027 133.605 100.66 133.605 99.1758V98.3555C133.605 96.6367 133.859 95.1068 134.367 93.7656C134.875 92.4115 135.565 91.2656 136.438 90.3281C137.31 89.3906 138.299 88.681 139.406 88.1992C140.513 87.7174 141.659 87.4766 142.844 87.4766C144.354 87.4766 145.656 87.737 146.75 88.2578C147.857 88.7786 148.762 89.5078 149.465 90.4453C150.168 91.3698 150.689 92.4635 151.027 93.7266C151.366 94.9766 151.535 96.3438 151.535 97.8281V99.4492H135.754V96.5H147.922V96.2266C147.87 95.2891 147.674 94.3776 147.336 93.4922C147.01 92.6068 146.49 91.8776 145.773 91.3047C145.057 90.7318 144.081 90.4453 142.844 90.4453C142.023 90.4453 141.268 90.6211 140.578 90.9727C139.888 91.3112 139.296 91.819 138.801 92.4961C138.306 93.1732 137.922 94 137.648 94.9766C137.375 95.9531 137.238 97.0794 137.238 98.3555V99.1758C137.238 100.178 137.375 101.122 137.648 102.008C137.935 102.88 138.345 103.648 138.879 104.312C139.426 104.977 140.083 105.497 140.852 105.875C141.633 106.253 142.518 106.441 143.508 106.441C144.784 106.441 145.865 106.181 146.75 105.66C147.635 105.139 148.41 104.443 149.074 103.57L151.262 105.309C150.806 105.999 150.227 106.656 149.523 107.281C148.82 107.906 147.954 108.414 146.926 108.805C145.91 109.195 144.706 109.391 143.312 109.391ZM168.059 103.395C168.059 102.874 167.941 102.392 167.707 101.949C167.486 101.493 167.023 101.083 166.32 100.719C165.63 100.341 164.589 100.016 163.195 99.7422C162.023 99.4948 160.962 99.2018 160.012 98.8633C159.074 98.5247 158.273 98.1146 157.609 97.6328C156.958 97.151 156.457 96.5846 156.105 95.9336C155.754 95.2826 155.578 94.5208 155.578 93.6484C155.578 92.8151 155.76 92.0273 156.125 91.2852C156.503 90.543 157.03 89.8854 157.707 89.3125C158.397 88.7396 159.224 88.2904 160.188 87.9648C161.151 87.6393 162.225 87.4766 163.41 87.4766C165.103 87.4766 166.548 87.776 167.746 88.375C168.944 88.974 169.862 89.7747 170.5 90.7773C171.138 91.7669 171.457 92.8672 171.457 94.0781H167.844C167.844 93.4922 167.668 92.9258 167.316 92.3789C166.978 91.819 166.477 91.3568 165.812 90.9922C165.161 90.6276 164.361 90.4453 163.41 90.4453C162.408 90.4453 161.594 90.6016 160.969 90.9141C160.357 91.2135 159.908 91.5977 159.621 92.0664C159.348 92.5352 159.211 93.0299 159.211 93.5508C159.211 93.9414 159.276 94.293 159.406 94.6055C159.549 94.9049 159.797 95.1849 160.148 95.4453C160.5 95.6927 160.995 95.9271 161.633 96.1484C162.271 96.3698 163.085 96.5911 164.074 96.8125C165.806 97.2031 167.232 97.6719 168.352 98.2188C169.471 98.7656 170.305 99.4362 170.852 100.23C171.398 101.025 171.672 101.988 171.672 103.121C171.672 104.046 171.477 104.892 171.086 105.66C170.708 106.428 170.155 107.092 169.426 107.652C168.71 108.199 167.85 108.629 166.848 108.941C165.858 109.241 164.745 109.391 163.508 109.391C161.646 109.391 160.07 109.059 158.781 108.395C157.492 107.73 156.516 106.871 155.852 105.816C155.188 104.762 154.855 103.648 154.855 102.477H158.488C158.54 103.466 158.827 104.254 159.348 104.84C159.868 105.413 160.507 105.823 161.262 106.07C162.017 106.305 162.766 106.422 163.508 106.422C164.497 106.422 165.324 106.292 165.988 106.031C166.665 105.771 167.18 105.413 167.531 104.957C167.883 104.501 168.059 103.98 168.059 103.395Z" fill="white"/>
</svg>
