<svg width="227" height="176" viewBox="0 0 227 176" fill="none" xmlns="http://www.w3.org/2000/svg">
<rect width="227" height="176" rx="30" fill="#FFD4D0"/>
<rect y="132" width="227" height="44" rx="22" fill="#FFA097"/>
<path d="M82.2422 54.8125C82.2422 54.1484 82.138 53.5625 81.9297 53.0547C81.7344 52.5339 81.3828 52.0651 80.875 51.6484C80.3802 51.2318 79.6901 50.8346 78.8047 50.457C77.9323 50.0794 76.8255 49.6953 75.4844 49.3047C74.0781 48.888 72.8086 48.4258 71.6758 47.918C70.543 47.3971 69.5729 46.8047 68.7656 46.1406C67.9583 45.4766 67.3398 44.7148 66.9102 43.8555C66.4805 42.9961 66.2656 42.013 66.2656 40.9062C66.2656 39.7995 66.4935 38.7773 66.9492 37.8398C67.4049 36.9023 68.056 36.0885 68.9023 35.3984C69.7617 34.6953 70.7839 34.1484 71.9688 33.7578C73.1536 33.3672 74.4753 33.1719 75.9336 33.1719C78.069 33.1719 79.8789 33.582 81.3633 34.4023C82.8607 35.2096 84 36.2708 84.7812 37.5859C85.5625 38.888 85.9531 40.2812 85.9531 41.7656H82.2031C82.2031 40.6979 81.9753 39.7539 81.5195 38.9336C81.0638 38.1003 80.3737 37.4492 79.4492 36.9805C78.5247 36.4987 77.3529 36.2578 75.9336 36.2578C74.5924 36.2578 73.4857 36.4596 72.6133 36.8633C71.7409 37.2669 71.0898 37.8138 70.6602 38.5039C70.2435 39.194 70.0352 39.9818 70.0352 40.8672C70.0352 41.4661 70.1589 42.013 70.4062 42.5078C70.6667 42.9896 71.0638 43.4388 71.5977 43.8555C72.1445 44.2721 72.8346 44.6562 73.668 45.0078C74.5143 45.3594 75.5234 45.6979 76.6953 46.0234C78.3099 46.4792 79.7031 46.987 80.875 47.5469C82.0469 48.1068 83.0104 48.7383 83.7656 49.4414C84.5339 50.1315 85.1003 50.9193 85.4648 51.8047C85.8424 52.6771 86.0312 53.6667 86.0312 54.7734C86.0312 55.9323 85.7969 56.9805 85.3281 57.918C84.8594 58.8555 84.1888 59.6562 83.3164 60.3203C82.444 60.9844 81.3958 61.4987 80.1719 61.8633C78.9609 62.2148 77.6068 62.3906 76.1094 62.3906C74.7943 62.3906 73.4987 62.2083 72.2227 61.8438C70.9596 61.4792 69.8073 60.9323 68.7656 60.2031C67.737 59.474 66.9102 58.5755 66.2852 57.5078C65.6732 56.4271 65.3672 55.1771 65.3672 53.7578H69.1172C69.1172 54.7344 69.306 55.5742 69.6836 56.2773C70.0612 56.9674 70.5755 57.5404 71.2266 57.9961C71.8906 58.4518 72.6393 58.7904 73.4727 59.0117C74.319 59.2201 75.1979 59.3242 76.1094 59.3242C77.4245 59.3242 78.5378 59.1419 79.4492 58.7773C80.3607 58.4128 81.0508 57.8919 81.5195 57.2148C82.0013 56.5378 82.2422 55.737 82.2422 54.8125ZM99.1367 40.8672V43.6406H87.7109V40.8672H99.1367ZM91.5781 35.7305H95.1914V56.7656C95.1914 57.4818 95.3021 58.0221 95.5234 58.3867C95.7448 58.7513 96.0312 58.9922 96.3828 59.1094C96.7344 59.2266 97.112 59.2852 97.5156 59.2852C97.8151 59.2852 98.1276 59.2591 98.4531 59.207C98.7917 59.1419 99.0456 59.0898 99.2148 59.0508L99.2344 62C98.9479 62.0911 98.5703 62.1758 98.1016 62.2539C97.6458 62.3451 97.0924 62.3906 96.4414 62.3906C95.556 62.3906 94.7422 62.2148 94 61.8633C93.2578 61.5117 92.6654 60.9258 92.2227 60.1055C91.793 59.2721 91.5781 58.1523 91.5781 56.7461V35.7305ZM116.305 57.1172V40.8672H119.938V62H116.48L116.305 57.1172ZM116.988 52.6641L118.492 52.625C118.492 54.0312 118.342 55.3333 118.043 56.5312C117.757 57.7161 117.288 58.7448 116.637 59.6172C115.986 60.4896 115.133 61.1732 114.078 61.668C113.023 62.1497 111.741 62.3906 110.23 62.3906C109.202 62.3906 108.258 62.2409 107.398 61.9414C106.552 61.6419 105.823 61.1797 105.211 60.5547C104.599 59.9297 104.124 59.1159 103.785 58.1133C103.46 57.1107 103.297 55.9062 103.297 54.5V40.8672H106.91V54.5391C106.91 55.4896 107.014 56.2773 107.223 56.9023C107.444 57.5143 107.737 58.0026 108.102 58.3672C108.479 58.7188 108.896 58.9661 109.352 59.1094C109.82 59.2526 110.302 59.3242 110.797 59.3242C112.333 59.3242 113.551 59.0312 114.449 58.4453C115.348 57.8464 115.992 57.0456 116.383 56.043C116.786 55.0273 116.988 53.901 116.988 52.6641ZM138.766 57.8984V32H142.398V62H139.078L138.766 57.8984ZM124.547 51.668V51.2578C124.547 49.6432 124.742 48.1784 125.133 46.8633C125.536 45.5352 126.103 44.3958 126.832 43.4453C127.574 42.4948 128.453 41.7656 129.469 41.2578C130.497 40.737 131.643 40.4766 132.906 40.4766C134.234 40.4766 135.393 40.7109 136.383 41.1797C137.385 41.6354 138.232 42.306 138.922 43.1914C139.625 44.0638 140.178 45.1185 140.582 46.3555C140.986 47.5924 141.266 48.9922 141.422 50.5547V52.3516C141.279 53.901 140.999 55.2943 140.582 56.5312C140.178 57.7682 139.625 58.8229 138.922 59.6953C138.232 60.5677 137.385 61.2383 136.383 61.707C135.38 62.1628 134.208 62.3906 132.867 62.3906C131.63 62.3906 130.497 62.1237 129.469 61.5898C128.453 61.056 127.574 60.3073 126.832 59.3438C126.103 58.3802 125.536 57.2474 125.133 55.9453C124.742 54.6302 124.547 53.2044 124.547 51.668ZM128.18 51.2578V51.668C128.18 52.7227 128.284 53.7122 128.492 54.6367C128.714 55.5612 129.052 56.375 129.508 57.0781C129.964 57.7812 130.543 58.3346 131.246 58.7383C131.949 59.1289 132.789 59.3242 133.766 59.3242C134.964 59.3242 135.947 59.0703 136.715 58.5625C137.496 58.0547 138.121 57.3841 138.59 56.5508C139.059 55.7174 139.423 54.8125 139.684 53.8359V49.1289C139.527 48.4128 139.299 47.7227 139 47.0586C138.714 46.3815 138.336 45.7826 137.867 45.2617C137.411 44.7279 136.845 44.3047 136.168 43.9922C135.504 43.6797 134.716 43.5234 133.805 43.5234C132.815 43.5234 131.962 43.7318 131.246 44.1484C130.543 44.5521 129.964 45.112 129.508 45.8281C129.052 46.5312 128.714 47.3516 128.492 48.2891C128.284 49.2135 128.18 50.2031 128.18 51.2578ZM153.961 59.8125L159.84 40.8672H163.707L155.23 65.2617C155.035 65.7826 154.775 66.3424 154.449 66.9414C154.137 67.5534 153.733 68.1328 153.238 68.6797C152.743 69.2266 152.145 69.6693 151.441 70.0078C150.751 70.3594 149.924 70.5352 148.961 70.5352C148.674 70.5352 148.31 70.4961 147.867 70.418C147.424 70.3398 147.112 70.2747 146.93 70.2227L146.91 67.293C147.014 67.306 147.177 67.319 147.398 67.332C147.633 67.3581 147.796 67.3711 147.887 67.3711C148.707 67.3711 149.404 67.2604 149.977 67.0391C150.549 66.8307 151.031 66.4727 151.422 65.9648C151.826 65.4701 152.171 64.7865 152.457 63.9141L153.961 59.8125ZM149.645 40.8672L155.133 57.2734L156.07 61.082L153.473 62.4102L145.699 40.8672H149.645ZM76.0898 80.5625V109H72.3789V80.5625H76.0898ZM85.2305 80.5625V83.6484H63.2578V80.5625H85.2305ZM92.8281 87.8672V109H89.1953V87.8672H92.8281ZM88.9219 82.2617C88.9219 81.6758 89.0977 81.181 89.4492 80.7773C89.8138 80.3737 90.3477 80.1719 91.0508 80.1719C91.7409 80.1719 92.2682 80.3737 92.6328 80.7773C93.0104 81.181 93.1992 81.6758 93.1992 82.2617C93.1992 82.8216 93.0104 83.3034 92.6328 83.707C92.2682 84.0977 91.7409 84.293 91.0508 84.293C90.3477 84.293 89.8138 84.0977 89.4492 83.707C89.0977 83.3034 88.9219 82.8216 88.9219 82.2617ZM102.223 92.0664V109H98.5898V87.8672H102.027L102.223 92.0664ZM101.48 97.6328L99.8008 97.5742C99.8138 96.1289 100.003 94.7943 100.367 93.5703C100.732 92.3333 101.272 91.2591 101.988 90.3477C102.704 89.4362 103.596 88.7331 104.664 88.2383C105.732 87.7305 106.969 87.4766 108.375 87.4766C109.365 87.4766 110.276 87.6198 111.109 87.9062C111.943 88.1797 112.665 88.6159 113.277 89.2148C113.889 89.8138 114.365 90.582 114.703 91.5195C115.042 92.457 115.211 93.5898 115.211 94.918V109H111.598V95.0938C111.598 93.987 111.409 93.1016 111.031 92.4375C110.667 91.7734 110.146 91.2917 109.469 90.9922C108.792 90.6797 107.997 90.5234 107.086 90.5234C106.018 90.5234 105.126 90.7122 104.41 91.0898C103.694 91.4674 103.121 91.9883 102.691 92.6523C102.262 93.3164 101.949 94.0781 101.754 94.9375C101.572 95.7839 101.48 96.6823 101.48 97.6328ZM115.172 95.6406L112.75 96.3828C112.763 95.224 112.952 94.1107 113.316 93.043C113.694 91.9753 114.234 91.0247 114.938 90.1914C115.654 89.3581 116.533 88.7005 117.574 88.2188C118.616 87.724 119.807 87.4766 121.148 87.4766C122.281 87.4766 123.284 87.6263 124.156 87.9258C125.042 88.2253 125.784 88.6875 126.383 89.3125C126.995 89.9245 127.457 90.7122 127.77 91.6758C128.082 92.6393 128.238 93.7852 128.238 95.1133V109H124.605V95.0742C124.605 93.8893 124.417 92.9714 124.039 92.3203C123.674 91.6562 123.154 91.194 122.477 90.9336C121.812 90.6602 121.018 90.5234 120.094 90.5234C119.299 90.5234 118.596 90.6602 117.984 90.9336C117.372 91.207 116.858 91.5846 116.441 92.0664C116.025 92.5352 115.706 93.0755 115.484 93.6875C115.276 94.2995 115.172 94.9505 115.172 95.6406ZM142.477 109.391C141.005 109.391 139.671 109.143 138.473 108.648C137.288 108.141 136.266 107.431 135.406 106.52C134.56 105.608 133.909 104.527 133.453 103.277C132.997 102.027 132.77 100.66 132.77 99.1758V98.3555C132.77 96.6367 133.023 95.1068 133.531 93.7656C134.039 92.4115 134.729 91.2656 135.602 90.3281C136.474 89.3906 137.464 88.681 138.57 88.1992C139.677 87.7174 140.823 87.4766 142.008 87.4766C143.518 87.4766 144.82 87.737 145.914 88.2578C147.021 88.7786 147.926 89.5078 148.629 90.4453C149.332 91.3698 149.853 92.4635 150.191 93.7266C150.53 94.9766 150.699 96.3438 150.699 97.8281V99.4492H134.918V96.5H147.086V96.2266C147.034 95.2891 146.839 94.3776 146.5 93.4922C146.174 92.6068 145.654 91.8776 144.938 91.3047C144.221 90.7318 143.245 90.4453 142.008 90.4453C141.188 90.4453 140.432 90.6211 139.742 90.9727C139.052 91.3112 138.46 91.819 137.965 92.4961C137.47 93.1732 137.086 94 136.812 94.9766C136.539 95.9531 136.402 97.0794 136.402 98.3555V99.1758C136.402 100.178 136.539 101.122 136.812 102.008C137.099 102.88 137.509 103.648 138.043 104.312C138.59 104.977 139.247 105.497 140.016 105.875C140.797 106.253 141.682 106.441 142.672 106.441C143.948 106.441 145.029 106.181 145.914 105.66C146.799 105.139 147.574 104.443 148.238 103.57L150.426 105.309C149.97 105.999 149.391 106.656 148.688 107.281C147.984 107.906 147.118 108.414 146.09 108.805C145.074 109.195 143.87 109.391 142.477 109.391ZM158.531 91.1875V109H154.918V87.8672H158.434L158.531 91.1875ZM165.133 87.75L165.113 91.1094C164.814 91.0443 164.527 91.0052 164.254 90.9922C163.993 90.9661 163.694 90.9531 163.355 90.9531C162.522 90.9531 161.786 91.0833 161.148 91.3438C160.51 91.6042 159.97 91.9688 159.527 92.4375C159.085 92.9062 158.733 93.4661 158.473 94.1172C158.225 94.7552 158.062 95.4583 157.984 96.2266L156.969 96.8125C156.969 95.5365 157.092 94.3385 157.34 93.2188C157.6 92.099 157.997 91.1094 158.531 90.25C159.065 89.3776 159.742 88.7005 160.562 88.2188C161.396 87.724 162.385 87.4766 163.531 87.4766C163.792 87.4766 164.091 87.5091 164.43 87.5742C164.768 87.6263 165.003 87.6849 165.133 87.75Z" fill="#6E4700"/>
</svg>
