<svg width="1187" height="511" viewBox="0 0 1187 511" fill="none" xmlns="http://www.w3.org/2000/svg">
<path d="M1021.44 94.8612L1012.9 214.528L1131.57 196.884L1032.68 264.821L1120.47 346.597L1005.7 311.646L996.496 431.263L952.265 319.743L853.006 387.127L912.619 283.015L798.049 247.425L916.615 229.119L873.007 117.354L961.244 198.639L1021.44 94.8612Z" fill="#FFD4D0"/>
<rect x="66.3594" y="192" width="344" height="68" fill="#FFF07A"/>
<rect x="552.359" y="398" width="344" height="68" fill="#FFF07A"/>
<path d="M106.13 247.58C103.206 247.58 99.6809 246.462 95.5533 244.226C91.4257 241.99 88.5881 239.583 87.0402 237.003C86.0083 235.283 85.4924 233.219 85.4924 230.812C85.4924 225.308 87.4702 217.999 91.4257 208.884C95.5533 199.597 100.713 189.622 106.904 178.959C109.656 174.144 113.181 168.554 117.481 162.191C121.952 155.828 126.94 149.292 132.443 142.585C137.947 135.706 143.708 129.17 149.727 122.979C155.919 116.788 162.024 111.37 168.043 106.727C174.235 102.083 180.082 98.8158 185.586 96.924C187.821 96.0641 189.799 95.6341 191.519 95.6341C194.787 95.6341 197.022 96.752 198.226 98.9877C199.602 101.052 201.408 102.771 203.644 104.147C205.019 105.007 205.707 106.383 205.707 108.275C205.707 112.23 203.558 116.96 199.258 122.463C194.959 127.967 189.369 133.814 182.49 140.005C175.611 146.197 168.215 152.388 160.304 158.579C152.393 164.599 144.74 170.188 137.345 175.348C130.122 180.507 123.93 184.806 118.771 188.246C113.611 191.686 110.344 193.836 108.968 194.695C106.388 199.511 103.98 205.014 101.745 211.206C99.5089 217.397 98.391 223.244 98.391 228.748C98.391 230.812 98.649 233.133 99.1649 235.713C99.8528 238.121 101.573 239.325 104.324 239.325C106.904 239.325 109.914 238.379 113.353 236.487C116.793 234.595 120.147 232.531 123.414 230.296C126.682 227.888 129.262 225.91 131.153 224.362C135.625 220.751 139.581 217.053 143.02 213.269C146.46 209.486 150.501 205.186 155.145 200.371C155.489 200.027 155.833 199.769 156.177 199.597C156.521 199.253 156.951 199.081 157.467 199.081C158.499 199.081 159.014 199.683 159.014 200.887C159.014 201.919 158.585 202.865 157.725 203.724C150.845 211.292 143.622 219.117 136.055 227.2C128.66 235.283 120.405 241.646 111.29 246.29C109.57 247.15 107.85 247.58 106.13 247.58ZM117.223 181.281C119.803 180.421 123.414 178.357 128.058 175.09C132.701 171.65 137.861 167.608 143.536 162.965C149.383 158.321 155.231 153.42 161.078 148.26C167.098 142.929 172.601 137.856 177.588 133.04C182.748 128.053 186.961 123.839 190.229 120.399C193.669 116.788 195.647 114.294 196.162 112.918C196.506 111.886 196.678 111.198 196.678 110.854C196.678 109.479 195.99 108.533 194.615 108.017C193.411 107.501 192.035 107.243 190.487 107.243C189.627 107.243 188.767 107.329 187.907 107.501C187.047 107.673 186.274 107.845 185.586 108.017C182.662 109.049 178.792 111.628 173.977 115.756C169.161 119.712 164.002 124.613 158.499 130.46C152.995 136.136 147.492 142.155 141.988 148.518C136.657 154.882 131.755 160.987 127.284 166.834C122.984 172.51 119.631 177.325 117.223 181.281ZM205.294 147.744C201.339 147.744 199.361 146.283 199.361 143.359C199.361 141.295 200.479 139.059 202.715 136.652C204.95 134.244 208.218 132.524 212.517 131.492C215.097 130.804 217.161 130.46 218.709 130.46C220.429 130.288 222.062 129.944 223.61 129.428C222.922 132.696 221.461 136.222 219.225 140.005C217.161 143.789 214.409 146.111 210.97 146.971C209.25 147.487 207.358 147.744 205.294 147.744ZM164.019 250.417C161.267 250.417 158.687 249.3 156.28 247.064C154.044 244.828 152.668 242.42 152.152 239.841C152.668 236.573 153.786 232.617 155.506 227.974C157.397 223.158 159.547 218.171 161.955 213.011C164.363 207.852 166.77 203.037 169.178 198.565C171.586 193.922 173.65 190.224 175.369 187.472C172.102 190.396 168.576 193.664 164.793 197.275C161.181 200.887 157.741 204.24 154.474 207.336C154.302 207.508 153.872 207.852 153.184 208.368C152.668 208.884 152.152 209.142 151.636 209.142C150.432 209.142 149.83 208.626 149.83 207.594C149.83 206.734 150.174 205.96 150.862 205.272C155.506 200.113 160.321 194.953 165.309 189.794C170.468 184.635 175.455 179.303 180.271 173.8C181.819 171.908 183.109 170.446 184.141 169.414C185.344 168.21 187.15 167.608 189.558 167.608C190.59 167.608 192.138 167.866 194.201 168.382C196.437 168.726 198.243 169.414 199.619 170.446C201.167 171.478 201.425 172.768 200.393 174.316C199.189 176.207 197.125 179.303 194.201 183.603C191.278 187.902 187.924 192.804 184.141 198.307C180.529 203.81 176.917 209.4 173.306 215.075C169.866 220.579 167.028 225.566 164.793 230.038C162.557 234.509 161.439 237.863 161.439 240.099C161.439 241.13 161.783 241.646 162.471 241.646C163.503 241.646 165.223 240.7 167.63 238.809C170.21 236.917 172.704 234.939 175.112 232.875C177.691 230.64 179.411 229.178 180.271 228.49C185.258 224.19 190.16 219.805 194.975 215.333C199.791 210.69 204.348 205.874 208.648 200.887C208.992 200.543 209.422 200.027 209.938 199.339C210.626 198.651 211.314 198.307 212.002 198.307C212.861 198.307 213.291 198.823 213.291 199.855C213.291 201.059 212.861 202.263 212.002 203.466C209.766 206.218 207.272 208.97 204.52 211.722C201.769 214.301 199.189 216.881 196.781 219.461C192.31 223.932 187.924 228.404 183.625 232.875C179.497 237.175 175.369 241.646 171.242 246.29C170.382 247.322 169.264 248.268 167.888 249.128C166.684 249.987 165.395 250.417 164.019 250.417ZM221.027 251.707C217.931 251.707 215.265 250.675 213.029 248.612C210.966 246.548 209.332 244.054 208.128 241.13C207.096 238.035 206.58 235.111 206.58 232.359C206.58 229.608 206.924 226.942 207.612 224.362C208.3 221.611 209.246 218.945 210.45 216.365C213.889 208.97 218.103 200.457 223.09 190.826C228.078 181.023 233.409 171.908 239.085 163.481C237.193 164.169 234.785 165.029 231.861 166.061C228.938 166.92 226.186 167.694 223.606 168.382C221.027 169.07 219.221 169.414 218.189 169.414C217.157 169.242 216.469 168.812 216.125 168.124C215.953 167.264 215.867 166.404 215.867 165.545C215.867 163.653 216.641 161.847 218.189 160.127C219.737 158.407 221.456 157.289 223.348 156.774C226.788 155.914 230.572 155.054 234.699 154.194C238.827 153.334 243.126 152.56 247.598 151.872C254.133 142.929 261.012 134.588 268.235 126.849C275.631 119.11 283.456 112.574 291.711 107.243C293.259 106.211 294.979 106.727 296.87 108.791C298.762 110.682 299.794 112.66 299.966 114.724C299.966 116.616 299.278 117.906 297.902 118.594C290.679 122.893 283.972 128.139 277.78 134.33C271.589 140.521 265.484 146.799 259.464 153.162C260.496 152.99 263.506 152.818 268.493 152.646C273.481 152.302 279.414 152.044 286.293 151.872C293.173 151.528 299.88 151.27 306.415 151.098C312.951 142.327 319.83 134.158 327.053 126.591C334.448 118.852 342.187 112.402 350.271 107.243C351.818 106.211 353.538 106.727 355.43 108.791C357.322 110.682 358.354 112.66 358.526 114.724C358.526 116.616 357.838 117.906 356.462 118.594C349.583 122.893 343.391 127.623 337.888 132.782C332.385 137.77 326.537 143.703 320.346 150.582C323.613 150.41 326.365 150.324 328.601 150.324C331.009 150.324 332.557 150.324 333.244 150.324C334.104 150.324 335.738 150.41 338.146 150.582C340.554 150.582 342.789 150.84 344.853 151.356C346.917 151.7 347.949 152.388 347.949 153.42C347.949 154.624 346.659 155.226 344.079 155.226C341.5 155.226 339.522 155.226 338.146 155.226C336.426 155.226 333.502 155.312 329.375 155.484C325.247 155.656 320.518 155.914 315.186 156.258C309.167 163.481 304.781 169.672 302.03 174.832C299.278 179.819 296.354 184.806 293.259 189.794C288.787 198.393 284.832 207.164 281.392 216.107C277.952 225.05 276.233 232.273 276.233 237.777C276.233 238.637 276.319 239.325 276.491 239.841C276.663 240.357 277.178 240.614 278.038 240.614C279.07 240.614 280.016 240.357 280.876 239.841C281.908 239.153 282.768 238.465 283.456 237.777C285.864 235.885 288.099 233.735 290.163 231.327C292.399 228.748 294.549 226.34 296.612 224.104C300.396 219.977 304.266 215.935 308.221 211.98C312.177 208.024 316.046 204.068 319.83 200.113C320.174 199.769 320.518 199.511 320.862 199.339C321.206 198.995 321.55 198.823 321.894 198.823C323.098 198.823 323.699 199.511 323.699 200.887C323.699 201.403 323.355 202.177 322.668 203.209C320.604 205.96 318.368 208.712 315.96 211.464C313.553 214.043 311.231 216.709 308.995 219.461C304.524 224.792 300.052 230.038 295.58 235.197C291.281 240.357 286.981 245.688 282.682 251.191C282.166 251.363 281.65 251.449 281.134 251.449C280.618 251.621 280.102 251.707 279.586 251.707C276.491 251.707 273.825 250.675 271.589 248.612C269.525 246.548 267.891 244.054 266.688 241.13C265.656 238.035 265.14 235.111 265.14 232.359C265.14 229.608 265.484 226.942 266.172 224.362C266.86 221.611 267.805 218.945 269.009 216.365C273.137 207.25 277.952 197.619 283.456 187.472C289.131 177.153 295.323 167.092 302.03 157.289C294.807 157.805 287.583 158.407 280.36 159.095C273.309 159.611 267.118 160.213 261.786 160.901C256.455 161.589 253.015 162.191 251.467 162.707C250.091 164.255 247.684 167.78 244.244 173.284C240.976 178.787 237.795 184.291 234.699 189.794C229.884 198.221 225.842 206.992 222.574 216.107C219.307 225.05 217.673 232.273 217.673 237.777C217.673 238.637 217.759 239.325 217.931 239.841C218.103 240.357 218.619 240.614 219.479 240.614C220.511 240.614 221.456 240.357 222.316 239.841C223.348 239.153 224.208 238.465 224.896 237.777C227.304 235.885 229.54 233.735 231.603 231.327C233.839 228.748 235.989 226.34 238.053 224.104C241.836 219.977 245.706 215.935 249.661 211.98C253.617 208.024 257.487 204.068 261.27 200.113C261.614 199.769 261.958 199.511 262.302 199.339C262.646 198.995 262.99 198.823 263.334 198.823C264.538 198.823 265.14 199.511 265.14 200.887C265.14 201.403 264.796 202.177 264.108 203.209C262.044 205.96 259.808 208.712 257.401 211.464C254.993 214.043 252.671 216.709 250.435 219.461C245.964 224.792 241.492 230.038 237.021 235.197C232.721 240.357 228.422 245.688 224.122 251.191C223.606 251.363 223.09 251.449 222.574 251.449C222.058 251.621 221.542 251.707 221.027 251.707ZM330.596 247.58C327.672 247.58 324.147 246.462 320.019 244.226C315.892 241.99 313.054 239.583 311.506 237.003C310.474 235.283 309.958 233.219 309.958 230.812C309.958 225.308 311.936 217.999 315.892 208.884C320.019 199.597 325.179 189.622 331.37 178.959C334.122 174.144 337.647 168.554 341.947 162.191C346.418 155.828 351.406 149.292 356.909 142.585C362.413 135.706 368.174 129.17 374.193 122.979C380.385 116.788 386.49 111.37 392.51 106.727C398.701 102.083 404.548 98.8158 410.052 96.924C412.287 96.0641 414.265 95.6341 415.985 95.6341C419.253 95.6341 421.488 96.752 422.692 98.9877C424.068 101.052 425.874 102.771 428.11 104.147C429.486 105.007 430.173 106.383 430.173 108.275C430.173 112.23 428.024 116.96 423.724 122.463C419.425 127.967 413.835 133.814 406.956 140.005C400.077 146.197 392.681 152.388 384.77 158.579C376.859 164.599 369.206 170.188 361.811 175.348C354.588 180.507 348.396 184.806 343.237 188.246C338.077 191.686 334.81 193.836 333.434 194.695C330.854 199.511 328.446 205.014 326.211 211.206C323.975 217.397 322.857 223.244 322.857 228.748C322.857 230.812 323.115 233.133 323.631 235.713C324.319 238.121 326.039 239.325 328.79 239.325C331.37 239.325 334.38 238.379 337.819 236.487C341.259 234.595 344.613 232.531 347.88 230.296C351.148 227.888 353.728 225.91 355.619 224.362C360.091 220.751 364.047 217.053 367.486 213.269C370.926 209.486 374.967 205.186 379.611 200.371C379.955 200.027 380.299 199.769 380.643 199.597C380.987 199.253 381.417 199.081 381.933 199.081C382.965 199.081 383.48 199.683 383.48 200.887C383.48 201.919 383.051 202.865 382.191 203.724C375.311 211.292 368.088 219.117 360.521 227.2C353.126 235.283 344.871 241.646 335.756 246.29C334.036 247.15 332.316 247.58 330.596 247.58ZM341.689 181.281C344.269 180.421 347.88 178.357 352.524 175.09C357.167 171.65 362.327 167.608 368.002 162.965C373.85 158.321 379.697 153.42 385.544 148.26C391.564 142.929 397.067 137.856 402.054 133.04C407.214 128.053 411.427 123.839 414.695 120.399C418.135 116.788 420.113 114.294 420.628 112.918C420.972 111.886 421.144 111.198 421.144 110.854C421.144 109.479 420.456 108.533 419.081 108.017C417.877 107.501 416.501 107.243 414.953 107.243C414.093 107.243 413.233 107.329 412.373 107.501C411.513 107.673 410.74 107.845 410.052 108.017C407.128 109.049 403.258 111.628 398.443 115.756C393.627 119.712 388.468 124.613 382.965 130.46C377.461 136.136 371.958 142.155 366.454 148.518C361.123 154.882 356.221 160.987 351.75 166.834C347.45 172.51 344.097 177.325 341.689 181.281ZM385.389 242.678C375.07 242.678 369.911 237.605 369.911 227.458C369.911 223.502 370.943 218.945 373.006 213.785C375.242 208.454 378.166 203.123 381.777 197.791C385.389 192.46 389.431 187.558 393.902 183.087C398.374 178.443 402.931 174.746 407.575 171.994C412.39 169.07 416.862 167.608 420.989 167.608C422.365 167.608 423.311 167.952 423.827 168.64C424.515 169.156 425.031 170.102 425.375 171.478C425.719 172.166 425.977 172.94 426.149 173.8C426.321 174.66 426.579 175.519 426.923 176.379C427.611 177.583 428.212 178.787 428.728 179.991C429.244 181.195 429.502 182.485 429.502 183.861C429.502 185.58 429.072 187.128 428.212 188.504C427.353 189.708 426.321 190.826 425.117 191.858C423.397 193.406 420.817 195.383 417.378 197.791C413.938 200.027 410.154 202.349 406.027 204.756C402.071 206.992 398.202 208.97 394.418 210.69C390.806 212.41 387.883 213.441 385.647 213.785C384.099 216.193 382.465 219.203 380.746 222.814C379.198 226.254 378.424 229.436 378.424 232.359C378.424 233.907 378.768 235.283 379.456 236.487C380.316 237.691 381.605 238.293 383.325 238.293C386.077 238.293 389.689 237.003 394.16 234.423C398.804 231.671 403.619 228.404 408.607 224.62C413.594 220.665 418.152 216.881 422.279 213.269C426.579 209.486 429.76 206.562 431.824 204.498L440.079 195.727C441.111 194.695 442.229 194.179 443.433 194.179C444.465 194.179 444.981 194.609 444.981 195.469C444.981 196.501 443.519 198.651 440.595 201.919C437.671 205.014 434.146 208.54 430.018 212.496C426.063 216.279 422.365 219.805 418.925 223.072C415.486 226.168 413.25 228.146 412.218 229.006C408.607 232.101 404.479 235.197 399.836 238.293C395.192 241.216 390.377 242.678 385.389 242.678ZM390.033 207.078C391.752 206.046 394.332 204.412 397.772 202.177C401.383 199.941 405.081 197.447 408.865 194.695C412.648 191.944 415.83 189.192 418.41 186.44C421.161 183.689 422.537 181.281 422.537 179.217C422.537 178.701 422.451 178.271 422.279 177.927C422.107 177.755 421.763 177.669 421.247 177.669C419.011 177.669 416.346 178.873 413.25 181.281C410.154 183.689 407.059 186.612 403.963 190.052C400.867 193.32 398.03 196.587 395.45 199.855C393.042 202.951 391.236 205.358 390.033 207.078Z" fill="#F05654"/>
<path d="M49.0144 447.293V454H-0.00031936V447.293L13.9302 445.745C15.822 445.573 17.1978 445.315 18.0577 444.971C18.9176 444.455 19.6916 443.423 20.3795 441.875C21.2394 440.155 22.2713 437.232 23.4751 433.104L73.2638 278.579H89.516L139.821 433.104C141.024 437.232 141.97 440.155 142.658 441.875C143.518 443.423 144.378 444.455 145.238 444.971C146.098 445.315 147.388 445.573 149.108 445.745L163.296 447.293V454H100.609V447.293L114.797 445.745C117.549 445.401 119.011 444.713 119.183 443.681C119.527 442.477 118.753 438.952 116.861 433.104L106.284 400.084H43.339L32.7621 433.104C30.8704 438.952 30.0104 442.477 30.1824 443.681C30.5264 444.713 32.0742 445.401 34.8259 445.745L49.0144 447.293ZM45.9187 391.829H103.704L74.8116 302.054L45.9187 391.829ZM225.965 401.89L210.229 398.02C188.731 392.517 177.982 380.134 177.982 360.872C177.982 354.509 179.444 348.489 182.368 342.814C185.292 337.139 189.935 332.581 196.298 329.141C202.834 325.53 211.175 323.724 221.322 323.724C232.672 323.724 241.787 325.616 248.667 329.399C255.546 333.183 260.361 338.084 263.113 344.104C265.865 350.123 266.725 356.658 265.693 363.71L245.571 367.321C247.635 356.143 246.431 347.457 241.959 341.266C237.66 335.075 230.523 331.979 220.548 331.979C212.809 331.979 206.617 333.957 201.974 337.913C197.33 341.696 195.009 347.286 195.009 354.681C195.009 360.184 196.728 365.086 200.168 369.385C203.608 373.513 209.369 376.608 217.452 378.672L233.704 382.542C245.055 385.293 253.826 389.679 260.017 395.698C266.381 401.718 269.562 409.629 269.562 419.432C269.562 430.439 265.521 439.382 257.438 446.261C249.527 453.14 238.176 456.58 223.385 456.58C216.334 456.58 209.455 455.548 202.748 453.484C196.212 451.248 190.451 447.809 185.464 443.165C180.648 438.35 177.122 432.158 174.887 424.591L189.333 419.432C191.225 430.267 195.352 437.834 201.716 442.133C208.079 446.433 215.388 448.583 223.643 448.583C228.459 448.583 233.016 447.809 237.316 446.261C241.787 444.713 245.399 442.305 248.151 439.038C250.902 435.598 252.278 431.212 252.278 425.881C252.278 420.378 250.387 415.648 246.603 411.693C242.819 407.737 235.94 404.469 225.965 401.89ZM348.149 401.89L332.413 398.02C310.915 392.517 300.166 380.134 300.166 360.872C300.166 354.509 301.628 348.489 304.552 342.814C307.476 337.139 312.119 332.581 318.482 329.141C325.018 325.53 333.359 323.724 343.506 323.724C354.857 323.724 363.972 325.616 370.851 329.399C377.73 333.183 382.546 338.084 385.297 344.104C388.049 350.123 388.909 356.658 387.877 363.71L367.755 367.321C369.819 356.143 368.615 347.457 364.144 341.266C359.844 335.075 352.707 331.979 342.732 331.979C334.993 331.979 328.801 333.957 324.158 337.913C319.514 341.696 317.193 347.286 317.193 354.681C317.193 360.184 318.912 365.086 322.352 369.385C325.792 373.513 331.553 376.608 339.636 378.672L355.888 382.542C367.239 385.293 376.01 389.679 382.202 395.698C388.565 401.718 391.747 409.629 391.747 419.432C391.747 430.439 387.705 439.382 379.622 446.261C371.711 453.14 360.36 456.58 345.57 456.58C338.518 456.58 331.639 455.548 324.932 453.484C318.396 451.248 312.635 447.809 307.648 443.165C302.832 438.35 299.307 432.158 297.071 424.591L311.517 419.432C313.409 430.267 317.537 437.834 323.9 442.133C330.263 446.433 337.572 448.583 345.828 448.583C350.643 448.583 355.201 447.809 359.5 446.261C363.972 444.713 367.583 442.305 370.335 439.038C373.087 435.598 374.462 431.212 374.462 425.881C374.462 420.378 372.571 415.648 368.787 411.693C365.003 407.737 358.124 404.469 348.149 401.89ZM446.084 297.411C441.956 297.411 438.517 296.121 435.765 293.541C433.185 290.79 431.895 287.264 431.895 282.964C431.895 278.837 433.185 275.483 435.765 272.904C438.517 270.324 441.956 269.034 446.084 269.034C450.212 269.034 453.565 270.324 456.145 272.904C458.897 275.483 460.272 278.837 460.272 282.964C460.272 287.264 458.897 290.79 456.145 293.541C453.565 296.121 450.212 297.411 446.084 297.411ZM415.901 333.269V326.304H456.919V433.104C456.919 439.124 457.177 442.649 457.693 443.681C458.209 444.713 459.842 445.401 462.594 445.745L476.783 447.293V454H415.901V447.293L430.09 445.745C432.841 445.401 434.475 444.713 434.991 443.681C435.507 442.649 435.765 439.124 435.765 433.104V347.2C435.765 341.18 435.507 337.655 434.991 336.623C434.475 335.591 432.841 334.903 430.09 334.559L415.901 333.269ZM547.423 401.89L531.686 398.02C510.189 392.517 499.44 380.134 499.44 360.872C499.44 354.509 500.902 348.489 503.825 342.814C506.749 337.139 511.393 332.581 517.756 329.141C524.291 325.53 532.632 323.724 542.779 323.724C554.13 323.724 563.245 325.616 570.124 329.399C577.003 333.183 581.819 338.084 584.571 344.104C587.322 350.123 588.182 356.658 587.15 363.71L567.029 367.321C569.092 356.143 567.888 347.457 563.417 341.266C559.117 335.075 551.98 331.979 542.005 331.979C534.266 331.979 528.075 333.957 523.431 337.913C518.788 341.696 516.466 347.286 516.466 354.681C516.466 360.184 518.186 365.086 521.625 369.385C525.065 373.513 530.826 376.608 538.91 378.672L555.162 382.542C566.513 385.293 575.284 389.679 581.475 395.698C587.838 401.718 591.02 409.629 591.02 419.432C591.02 430.439 586.978 439.382 578.895 446.261C570.984 453.14 559.633 456.58 544.843 456.58C537.792 456.58 530.912 455.548 524.205 453.484C517.67 451.248 511.909 447.809 506.921 443.165C502.106 438.35 498.58 432.158 496.344 424.591L510.791 419.432C512.682 430.267 516.81 437.834 523.173 442.133C529.537 446.433 536.846 448.583 545.101 448.583C549.916 448.583 554.474 447.809 558.773 446.261C563.245 444.713 566.857 442.305 569.608 439.038C572.36 435.598 573.736 431.212 573.736 425.881C573.736 420.378 571.844 415.648 568.06 411.693C564.277 407.737 557.398 404.469 547.423 401.89ZM700.305 427.687C697.726 437.662 693.684 444.971 688.181 449.614C682.677 454.258 675.626 456.58 667.027 456.58C658.772 456.58 652.065 454.774 646.905 451.162C641.746 447.379 637.962 442.477 635.554 436.458C633.147 430.439 631.943 424.161 631.943 417.626V347.2C631.943 341.18 631.685 337.655 631.169 336.623C630.825 335.591 629.191 334.903 626.267 334.559L612.079 333.269V326.304H631.943V292.509L653.097 288.124V326.304H695.146V334.559H653.097V419.69C653.097 430.525 654.558 438.006 657.482 442.133C660.578 446.261 664.619 448.325 669.607 448.325C674.594 448.325 678.378 446.433 680.958 442.649C683.709 438.866 685.687 432.674 686.891 424.075L700.305 427.687ZM821.222 455.806C807.807 455.806 799.896 449.614 797.488 437.232C791.469 444.111 784.848 449.099 777.625 452.194C770.401 455.118 763.264 456.58 756.213 456.58C744.174 456.58 735.317 453.226 729.642 446.519C723.966 439.812 721.129 431.728 721.129 422.269C721.129 412.123 724.568 404.125 731.448 398.278C738.499 392.259 750.623 389.249 767.822 389.249H796.972V368.353C796.972 354.595 794.565 345.136 789.749 339.976C785.106 334.645 778.742 331.979 770.659 331.979C765.5 331.979 760.856 333.011 756.729 335.075C752.601 337.139 749.592 340.922 747.7 346.426C745.98 351.757 745.808 359.582 747.184 369.901L726.804 366.805C725.944 358.722 726.976 351.499 729.9 345.136C732.995 338.6 737.983 333.441 744.862 329.657C751.913 325.702 760.684 323.724 771.175 323.724C783.73 323.724 793.361 325.874 800.068 330.173C806.775 334.301 811.419 339.718 813.999 346.426C816.75 353.133 818.126 360.442 818.126 368.353V426.397C818.126 435.168 819.072 440.671 820.964 442.907C823.028 445.143 825.263 446.261 827.671 446.261C829.219 446.261 830.853 445.917 832.573 445.229C834.292 444.369 836.184 443.079 838.248 441.359L842.891 447.809C840.312 450.044 837.216 451.936 833.604 453.484C830.165 455.032 826.037 455.806 821.222 455.806ZM763.436 445.745C768.252 445.745 773.411 444.455 778.914 441.875C784.59 439.124 790.609 433.706 796.972 425.623V397.504H770.659C761.028 397.504 753.977 399.482 749.506 403.437C745.206 407.221 743.056 413.154 743.056 421.238C743.056 428.977 744.69 434.996 747.958 439.296C751.397 443.595 756.557 445.745 763.436 445.745ZM998.459 447.293V454H937.577V447.293L951.766 445.745C954.518 445.401 956.151 444.713 956.667 443.681C957.183 442.649 957.441 439.124 957.441 433.104V368.869C957.441 356.143 955.377 347.2 951.25 342.04C947.122 336.709 941.189 334.043 933.45 334.043C927.774 334.043 921.497 335.763 914.618 339.202C907.739 342.642 901.289 349.349 895.27 359.324V433.104C895.27 439.124 895.528 442.649 896.044 443.681C896.56 444.713 898.194 445.401 900.945 445.745L915.134 447.293V454H854.252V447.293L868.441 445.745C871.193 445.401 872.826 444.713 873.342 443.681C873.858 442.649 874.116 439.124 874.116 433.104V347.2C874.116 341.18 873.858 337.655 873.342 336.623C872.826 335.591 871.193 334.903 868.441 334.559L854.252 333.269V326.304H893.98V347.2C900.171 338.944 907.137 333.011 914.876 329.399C922.787 325.616 930.698 323.724 938.609 323.724C951.336 323.724 961.139 327.68 968.018 335.591C975.069 343.33 978.595 354.337 978.595 368.611V433.104C978.595 439.124 978.853 442.649 979.369 443.681C979.885 444.713 981.519 445.401 984.27 445.745L998.459 447.293ZM1098.6 427.687C1096.02 437.662 1091.98 444.971 1086.48 449.614C1080.97 454.258 1073.92 456.58 1065.32 456.58C1057.07 456.58 1050.36 454.774 1045.2 451.162C1040.04 447.379 1036.26 442.477 1033.85 436.458C1031.44 430.439 1030.24 424.161 1030.24 417.626V347.2C1030.24 341.18 1029.98 337.655 1029.46 336.623C1029.12 335.591 1027.49 334.903 1024.56 334.559L1010.37 333.269V326.304H1030.24V292.509L1051.39 288.124V326.304H1093.44V334.559H1051.39V419.69C1051.39 430.525 1052.85 438.006 1055.78 442.133C1058.87 446.261 1062.91 448.325 1067.9 448.325C1072.89 448.325 1076.67 446.433 1079.25 442.649C1082 438.866 1083.98 432.674 1085.19 424.075L1098.6 427.687Z" fill="#24B572"/>
<path d="M470.847 253.819C468.664 254.547 466.526 255.434 464.433 256.48C462.295 255.161 460.885 253.819 460.203 252.454C460.294 252.181 460.43 251.249 460.612 249.657C460.794 248.064 460.976 246.199 461.158 244.061C461.386 241.923 461.567 239.717 461.704 237.443C461.84 235.168 461.909 233.235 461.909 231.643C464.047 230.642 467.345 230.142 471.803 230.142C472.303 230.142 472.803 230.142 473.304 230.142C473.804 230.142 474.327 230.164 474.873 230.21C478.148 240.854 482.629 246.631 488.315 247.541C490.635 247.177 492.409 246.336 493.637 245.017C494.911 243.652 495.548 242.128 495.548 240.445C495.548 239.217 495.207 238.079 494.525 237.033C493.842 235.941 492.932 234.941 491.795 234.031C490.658 233.121 489.316 232.28 487.769 231.506C486.268 230.733 484.676 229.982 482.993 229.255C481.31 228.481 479.604 227.753 477.875 227.071C476.147 226.343 474.486 225.593 472.894 224.819C471.211 224.046 469.619 223.113 468.118 222.022C466.617 220.884 465.298 219.611 464.16 218.201C463.023 216.745 462.113 215.153 461.431 213.424C460.794 211.696 460.476 209.831 460.476 207.829C460.476 205.691 460.84 203.462 461.567 201.142C462.295 198.822 463.546 196.707 465.32 194.796C467.094 192.886 469.483 191.316 472.485 190.088C475.487 188.814 479.263 188.178 483.812 188.178C488.861 188.178 492.591 188.451 495.002 188.996L497.527 188.178H502.167C502.758 192.044 503.463 195.661 504.282 199.027C505.146 202.393 506.102 205.532 507.148 208.443C505.192 210.399 502.826 211.377 500.052 211.377C498.505 209.558 497.072 207.92 495.753 206.464C494.434 204.963 493.16 203.667 491.932 202.575C490.749 201.483 489.566 200.596 488.383 199.914C487.246 199.232 486.064 198.754 484.835 198.481C481.833 198.981 480.332 200.346 480.332 202.575C480.332 204.349 481.105 205.896 482.652 207.215C484.198 208.534 486.132 209.74 488.452 210.831C490.772 211.923 493.296 212.969 496.026 213.97C498.801 214.925 501.416 215.949 503.873 217.041C505.647 217.814 507.307 218.815 508.854 220.043C510.446 221.271 511.833 222.704 513.016 224.342C514.199 225.934 515.131 227.731 515.814 229.732C516.496 231.688 516.837 233.803 516.837 236.078C516.837 239.444 515.973 242.469 514.244 245.153C512.561 247.837 510.309 250.111 507.489 251.976C504.714 253.842 501.53 255.274 497.936 256.275C494.343 257.276 490.681 257.776 486.951 257.776C480.537 257.776 475.169 256.457 470.847 253.819ZM486.473 254.979C492.159 254.979 497.026 253.296 501.075 249.929C505.124 246.563 507.148 242.788 507.148 238.603C507.148 234.509 505.897 230.983 503.395 228.026C500.893 225.024 497.868 222.704 494.32 221.066C490.772 219.429 487.201 217.928 483.607 216.563C480.013 215.153 476.966 213.515 474.464 211.65C471.962 209.785 470.711 207.602 470.711 205.1C470.711 201.915 471.894 199.504 474.259 197.867C476.624 196.229 479.399 195.41 482.584 195.41C485.95 195.41 488.952 196.457 491.59 198.549C494.229 200.642 497.459 203.985 501.28 208.58C502.508 208.58 503.395 208.284 503.941 207.693C502.258 202.871 499.756 198.89 496.435 195.752C493.16 192.567 488.952 190.975 483.812 190.975C476.488 190.975 471.234 192.727 468.05 196.229C464.865 199.686 463.273 203.553 463.273 207.829C463.273 211.468 464.479 214.584 466.89 217.177C469.346 219.724 472.28 221.703 475.692 223.113C479.149 224.478 482.584 225.843 485.995 227.208C489.407 228.572 492.318 230.346 494.729 232.53C497.14 234.713 498.346 237.352 498.346 240.445C498.346 243.038 497.231 245.358 495.002 247.405C492.773 249.452 489.657 250.475 485.654 250.475C480.832 250.475 477.102 248.951 474.464 245.904C471.871 242.81 469.687 238.512 467.913 233.007C466.321 233.007 465.252 233.144 464.706 233.417C464.706 236.692 464.547 240.445 464.229 244.675C463.91 248.906 463.592 251.408 463.273 252.181C463.592 252.636 464.024 253.045 464.57 253.409C466.435 252.09 467.868 250.703 468.869 249.247C472.872 251.476 475.988 252.977 478.217 253.751C480.491 254.569 483.243 254.979 486.473 254.979ZM549.999 199.232H576.815C577.452 197.457 577.452 195.82 576.815 194.319H549.999V179.375C548.862 178.875 547.724 178.875 546.587 179.375C544.904 182.514 543.039 185.266 540.992 187.632C538.945 189.952 537.216 191.589 535.806 192.545C534.441 193.454 532.463 194.637 529.87 196.093C529.551 197.048 529.551 198.094 529.87 199.232H538.194V234.986C538.194 248.315 543.699 254.979 554.707 254.979C559.392 254.979 563.714 253.773 567.671 251.362C571.629 248.906 574.586 245.904 576.542 242.355C576.133 241.355 575.382 240.809 574.29 240.718C570.014 244.539 565.875 246.45 561.872 246.45C553.956 246.45 549.999 242.856 549.999 235.669V199.232ZM573.471 237.784C576.337 238.148 578.384 239.717 579.612 242.492C577.247 246.813 573.813 250.43 569.309 253.341C564.806 256.298 559.938 257.776 554.707 257.776C541.879 257.776 535.465 250.18 535.465 234.986V201.961H527.072C526.39 199.55 526.39 197.048 527.072 194.455C529.847 192.863 531.962 191.567 533.418 190.566C534.874 189.52 536.693 187.836 538.877 185.516C541.06 183.197 542.993 180.399 544.677 177.124C548.953 175.35 553.934 175.441 559.62 177.397V191.521H579.476C580.932 194.887 580.932 198.367 579.476 201.961H559.62V235.669C559.62 240.036 561.189 242.606 564.328 243.379C567.057 242.788 570.105 240.923 573.471 237.784ZM637.611 236.487C637.975 225.115 637.975 213.72 637.611 202.302C637.611 200.71 634.177 199.345 627.308 198.208C626.262 195.433 626.262 192.681 627.308 189.952H656.785C658.059 190.452 658.969 190.998 659.515 191.589C660.106 192.181 660.629 193.045 661.084 194.182C661.084 195.001 660.97 196.297 660.743 198.072C660.515 199.846 660.402 201.256 660.402 202.302C659.947 217.268 659.947 230.301 660.402 241.4C663.677 242.446 667.134 243.061 670.773 243.243C671.774 245.926 671.774 248.815 670.773 251.908C664.814 252.272 657.445 254.319 648.665 258.049C643.707 257.685 640.022 256.184 637.611 253.546V251.772C631.379 255.775 623.987 257.776 615.435 257.776C609.249 257.776 604.859 256.093 602.266 252.727C599.673 249.361 598.331 244.084 598.24 236.897C598.331 225.479 598.331 213.947 598.24 202.302C598.24 200.71 594.783 199.345 587.869 198.208C586.868 195.433 586.868 192.681 587.869 189.952H617.482C618.802 190.452 619.734 190.998 620.28 191.589C620.871 192.181 621.394 193.045 621.849 194.182C621.849 195.001 621.736 196.297 621.508 198.072C621.281 199.846 621.167 201.256 621.167 202.302C620.849 212.901 620.849 223.705 621.167 234.713C621.349 239.899 622.282 242.924 623.965 243.788C627.285 242.924 631.834 240.49 637.611 236.487ZM640.409 202.302C640.682 214.129 640.682 226.002 640.409 237.92C631.948 243.97 625.42 246.995 620.826 246.995C614.594 246.995 611.478 242.901 611.478 234.713C611.205 223.705 611.205 212.901 611.478 202.302C611.478 201.074 611.592 199.595 611.819 197.867C612.092 196.138 612.228 195.046 612.228 194.592C611.728 193.545 611.068 192.84 610.25 192.476C603.517 192.931 596.807 192.931 590.121 192.476C589.757 193.523 589.757 194.592 590.121 195.683C597.308 196.821 600.947 199.027 601.038 202.302C601.129 213.856 601.129 225.388 601.038 236.897C600.947 243.083 602.016 247.655 604.245 250.612C606.474 253.523 610.204 254.979 615.435 254.979C622.304 254.979 630.629 250.726 640.409 242.219V252.181C640.773 252.909 641.569 253.5 642.797 253.955C649.302 251.544 657.741 249.929 668.112 249.111C668.476 247.973 668.476 246.904 668.112 245.904C660.288 245.585 654.511 244.653 650.781 243.106C650.417 226.866 650.417 213.265 650.781 202.302C650.781 201.074 650.894 199.595 651.122 197.867C651.349 196.138 651.463 195.046 651.463 194.592C651.008 193.545 650.348 192.84 649.484 192.476C642.888 192.84 636.224 192.84 629.492 192.476C629.128 193.523 629.128 194.592 629.492 195.683C636.679 196.821 640.318 199.027 640.409 202.302ZM715.808 246.04C710.395 246.04 706.278 243.857 703.457 239.49C700.683 235.077 699.295 229.527 699.295 222.841C699.295 217.427 699.841 212.787 700.933 208.921C702.07 205.054 703.548 202.211 705.368 200.392C707.188 198.572 708.962 197.298 710.69 196.57C712.419 195.797 714.17 195.41 715.944 195.41C722.358 195.41 727.157 198.117 730.342 203.53V213.424C730.342 225.843 730.296 234.281 730.205 238.739C725.156 243.606 720.357 246.04 715.808 246.04ZM760.365 247.541C761.866 250.544 761.775 253.432 760.092 256.207C748.446 255.843 738.666 255.843 730.751 256.207C729.068 255.479 727.999 254.547 727.544 253.409C723.132 256.321 717.013 257.776 709.189 257.776C701.456 257.776 695.178 254.888 690.356 249.111C685.58 243.334 683.192 235.464 683.192 225.502C683.192 221.089 683.851 216.79 685.171 212.605C686.49 208.42 688.469 204.463 691.107 200.733C693.745 197.003 697.407 193.977 702.093 191.658C706.824 189.338 712.214 188.178 718.264 188.178C722.404 188.178 725.497 188.269 727.544 188.451C727.453 181.263 727.408 172.643 727.408 162.59C724.405 161.635 720.243 161.02 714.921 160.747C713.92 158.064 713.92 155.175 714.921 152.082C721.289 151.536 729.364 149.489 739.144 145.941C744.057 146.305 747.719 147.806 750.13 150.444C750.13 202.348 750.334 233.371 750.744 243.515C750.835 245.472 754.042 246.813 760.365 247.541ZM727.544 204.213C725.27 200.983 722.29 199.072 718.605 198.481C715.421 199.163 712.692 201.37 710.417 205.1C708.143 208.784 707.006 214.698 707.006 222.841C707.006 228.117 707.915 232.598 709.735 236.283C711.6 239.967 714.398 242.196 718.128 242.97C721.13 242.287 724.223 240.513 727.408 237.647C727.499 233.144 727.544 225.07 727.544 213.424V204.213ZM757.84 250.066C755.52 249.884 753.746 249.702 752.518 249.52C751.335 249.338 749.652 249.02 747.468 248.565C745.33 248.064 743.715 247.428 742.624 246.654C741.577 245.835 741.054 244.835 741.054 243.652C740.69 233.508 740.508 202.666 740.508 151.126C740.054 150.308 739.258 149.694 738.12 149.284C732.07 152.195 725.042 154.061 717.036 154.879C716.763 156.017 716.763 157.086 717.036 158.086C723.177 158.405 727.567 159.337 730.205 160.884C730.205 173.757 730.251 184.516 730.342 193.159C725.656 191.703 721.63 190.975 718.264 190.975C712.896 190.975 708.143 192.044 704.003 194.182C699.909 196.32 696.702 199.141 694.382 202.643C692.062 206.1 690.311 209.762 689.128 213.629C687.991 217.496 687.422 221.453 687.422 225.502C687.422 234.6 689.447 241.787 693.495 247.064C697.544 252.34 702.411 254.979 708.097 254.979C715.285 254.979 722.586 251.294 730 243.925C730 247.746 729.909 250.202 729.728 251.294C730.228 252.34 730.797 253.045 731.433 253.409C732.935 253.318 734.413 253.227 735.869 253.136C737.37 253.045 738.552 252.977 739.417 252.932C740.327 252.886 741.123 252.864 741.805 252.864C744.307 252.864 749.652 253 757.84 253.273C758.477 252.363 758.477 251.294 757.84 250.066ZM803.352 195.41C806.991 195.41 809.63 196.593 811.267 198.959C812.905 201.279 813.724 204.19 813.724 207.693C813.724 209.012 813.496 210.513 813.041 212.196H786.43C787.84 206.51 790.115 202.302 793.253 199.573C796.438 196.798 799.804 195.41 803.352 195.41ZM785.748 216.836H822.935C823.663 214.561 824.027 212.219 824.027 209.808C824.027 204.486 822.503 200.028 819.455 196.434C816.453 192.795 811.654 190.975 805.058 190.975C796.46 190.975 789.228 194.091 783.36 200.323C777.491 206.555 774.557 214.47 774.557 224.069C774.557 234.304 777.355 242.014 782.95 247.2C788.545 252.386 795.119 254.979 802.67 254.979C808.265 254.979 813.451 253.478 818.227 250.475C823.049 247.428 826.574 242.856 828.803 236.76C828.167 236.032 827.28 235.532 826.142 235.259C825.96 235.532 825.414 236.283 824.505 237.511C823.64 238.694 823.004 239.558 822.594 240.104C822.185 240.604 821.434 241.355 820.342 242.355C819.296 243.311 818.273 244.016 817.272 244.471C816.317 244.926 815.088 245.381 813.587 245.835C812.086 246.245 810.448 246.45 808.674 246.45C801.669 246.45 796.097 244.38 791.957 240.24C787.817 236.055 785.657 230.437 785.475 223.386C785.475 221.794 785.566 219.611 785.748 216.836ZM825.051 232.052C827.916 232.689 830.236 234.122 832.01 236.351C829.418 243.447 825.414 248.792 820.001 252.386C814.588 255.98 808.811 257.776 802.67 257.776C794.3 257.776 787.044 254.956 780.903 249.315C774.808 243.675 771.76 235.259 771.76 224.069C771.76 213.925 774.876 205.418 781.108 198.549C787.385 191.635 796.256 188.178 807.719 188.178C825.051 188.178 833.716 195.388 833.716 209.808C833.716 212.628 833.057 215.903 831.737 219.634H795.096V224.069C795.323 229.573 796.824 234.054 799.599 237.511C802.374 240.923 806.195 242.924 811.063 243.515C813.928 243.243 816.294 242.265 818.159 240.581C820.024 238.898 822.321 236.055 825.051 232.052ZM810.926 207.693C810.926 202.689 809.243 199.664 805.877 198.617C801.874 199.846 798.894 203.439 796.938 209.398H810.79C810.79 209.216 810.812 208.944 810.858 208.58C810.903 208.216 810.926 207.92 810.926 207.693ZM891.374 249.861C890.828 250.907 890.828 252.022 891.374 253.205C903.201 252.932 915.051 252.932 926.924 253.205C927.561 252.113 927.561 250.998 926.924 249.861C915.825 249.315 910.229 247.132 910.138 243.311L909.456 208.989C909.229 202.757 908.205 198.208 906.386 195.342C904.612 192.431 901.473 190.975 896.969 190.975C889.418 190.975 880.434 196.184 870.017 206.601V193.022C869.653 192.294 868.857 191.703 867.629 191.248C861.306 194.205 854.732 196.07 847.909 196.843C847.636 197.935 847.636 199.004 847.909 200.05C853.14 200.323 857.007 201.256 859.509 202.848C860.009 216.449 860.009 229.937 859.509 243.311C859.418 246.677 855.506 248.86 847.773 249.861C847.227 250.907 847.227 252.022 847.773 253.205C859.6 252.75 871.495 252.75 883.459 253.205C884.005 252.022 884.005 250.907 883.459 249.861C874.952 248.951 870.654 246.768 870.563 243.311C870.199 233.849 870.017 223.068 870.017 210.968C879.16 202.916 886.325 198.89 891.511 198.89C896.469 198.89 898.948 203.007 898.948 211.241L898.812 243.311C898.812 245.54 898.129 247.109 896.765 248.019C895.4 248.883 893.603 249.497 891.374 249.861ZM889.191 255.593C888.053 252.909 888.053 250.157 889.191 247.337C890.646 247.337 892.147 246.95 893.694 246.177C895.241 245.358 896.014 244.403 896.014 243.311L896.15 211.241C896.15 206.282 895.172 203.257 893.216 202.166C889.85 202.984 885.324 205.441 879.638 209.535C879.638 222.044 879.82 233.258 880.184 243.174C880.411 245.585 882.231 246.973 885.642 247.337C886.78 250.157 886.78 252.909 885.642 255.593C872.314 255.138 858.917 255.138 845.453 255.593C844.315 252.909 844.315 250.157 845.453 247.337C852.867 246.336 856.62 244.948 856.711 243.174C857.212 230.346 857.212 217.45 856.711 204.486C853.663 203.576 849.911 202.984 845.453 202.711C844.406 199.982 844.406 197.094 845.453 194.046C852.321 193.682 860.055 191.635 868.652 187.905C873.565 188.269 877.227 189.747 879.638 192.34V194.592C886.097 190.316 893.512 188.178 901.882 188.178C908.023 188.178 912.39 189.861 914.983 193.227C917.621 196.548 918.986 201.802 919.077 208.989C919.259 227.048 919.487 238.489 919.759 243.311C919.85 245.176 923.057 246.518 929.38 247.337C930.427 250.339 930.336 253.091 929.108 255.593C915.779 255.32 902.474 255.32 889.191 255.593ZM960.222 199.232H987.038C987.675 197.457 987.675 195.82 987.038 194.319H960.222V179.375C959.085 178.875 957.948 178.875 956.811 179.375C955.128 182.514 953.262 185.266 951.215 187.632C949.168 189.952 947.44 191.589 946.03 192.545C944.665 193.454 942.686 194.637 940.093 196.093C939.775 197.048 939.775 198.094 940.093 199.232H948.418V234.986C948.418 248.315 953.922 254.979 964.93 254.979C969.616 254.979 973.937 253.773 977.895 251.362C981.853 248.906 984.809 245.904 986.765 242.355C986.356 241.355 985.605 240.809 984.514 240.718C980.238 244.539 976.098 246.45 972.095 246.45C964.18 246.45 960.222 242.856 960.222 235.669V199.232ZM983.695 237.784C986.561 238.148 988.608 239.717 989.836 242.492C987.47 246.813 984.036 250.43 979.533 253.341C975.029 256.298 970.162 257.776 964.93 257.776C952.102 257.776 945.688 250.18 945.688 234.986V201.961H937.296C936.613 199.55 936.613 197.048 937.296 194.455C940.071 192.863 942.186 191.567 943.641 190.566C945.097 189.52 946.917 187.836 949.1 185.516C951.284 183.197 953.217 180.399 954.9 177.124C959.176 175.35 964.157 175.441 969.843 177.397V191.521H989.699C991.155 194.887 991.155 198.367 989.699 201.961H969.843V235.669C969.843 240.036 971.413 242.606 974.551 243.379C977.281 242.788 980.329 240.923 983.695 237.784Z" fill="#CA1718"/>
</svg>
