<svg width="2000" height="913" viewBox="0 0 2000 913" fill="none" xmlns="http://www.w3.org/2000/svg">
<path d="M1704.84 169.33L1689.6 382.937L1901.42 351.443L1724.91 472.712L1881.61 618.684L1676.75 556.296L1660.32 769.816L1581.36 570.75L1404.18 691.032L1510.59 505.19L1306.08 441.66L1517.73 408.983L1439.89 209.48L1597.39 354.575L1704.84 169.33Z" fill="#FFD4D0"/>
<rect y="342.725" width="614.049" height="121.382" fill="#FFF07A"/>
<rect x="867.521" y="710.44" width="614.049" height="121.382" fill="#FFF07A"/>
<path d="M110.838 440.223C107.154 440.223 103.163 438.688 98.865 435.619C94.8741 432.242 92.8787 427.023 92.8787 419.962C92.8787 412.594 94.4136 403.998 97.4835 394.175C100.86 384.351 105.005 374.22 109.917 363.783C115.136 353.345 120.354 343.521 125.573 334.311C130.792 324.795 135.397 316.659 139.388 309.906C138.16 308.678 136.778 307.296 135.243 305.761C134.016 304.226 133.402 302.384 133.402 300.235C133.402 297.165 134.936 294.71 138.006 292.868C141.076 290.719 144.607 289.184 148.598 288.263C152.588 287.035 155.812 286.267 158.268 285.96C167.171 272.453 175.766 258.638 184.055 244.516C192.344 230.088 201.707 216.734 212.145 204.454C206.312 199.849 203.396 195.551 203.396 191.56C203.396 186.649 206.926 182.658 213.987 179.588C221.355 176.518 230.104 174.215 240.235 172.68C250.672 170.838 260.342 169.764 269.245 169.457C277.841 169.15 287.972 168.843 299.637 168.536C311.303 168.229 323.276 168.076 335.555 168.076C348.142 167.769 360.268 167.615 371.934 167.615C383.599 167.308 393.73 167.155 402.326 167.155C408.466 167.155 413.531 168.076 417.522 169.918C421.82 171.759 423.969 173.908 423.969 176.364C423.969 177.899 422.28 179.434 418.903 180.969C415.527 182.197 409.694 182.811 401.405 182.811C385.748 182.811 370.092 183.425 354.435 184.653C338.779 185.574 323.122 186.649 307.466 187.877C288.739 189.104 273.236 192.174 260.956 197.086C248.984 201.998 238.853 208.598 230.564 216.887C222.583 225.176 214.908 235.153 207.54 246.819C200.479 258.485 192.19 271.685 182.674 286.421C186.358 287.649 192.19 288.57 200.172 289.184C208.461 289.798 216.75 290.258 225.038 290.565C233.327 290.565 239.621 290.565 243.918 290.565C258.347 290.565 272.622 290.105 286.744 289.184C301.172 288.263 315.447 287.802 329.569 287.802C339.7 287.802 344.765 288.877 344.765 291.026C344.765 292.254 342.923 293.789 339.239 295.63C335.862 297.472 332.025 299.161 327.727 300.696C323.429 301.924 320.052 302.691 317.596 302.998C293.651 306.068 268.017 308.985 240.695 311.748C213.68 314.51 187.892 315.892 163.333 315.892C161.184 315.892 157.961 318.962 153.663 325.102C149.365 330.934 144.607 338.456 139.388 347.666C134.169 356.568 129.257 365.931 124.652 375.755C120.047 385.272 116.21 394.021 113.14 402.003C110.07 409.678 108.535 415.204 108.535 418.581C108.535 419.808 108.535 421.497 108.535 423.646C108.842 425.488 109.61 426.869 110.838 427.79C114.829 430.86 116.824 433.623 116.824 436.079C116.824 438.842 114.829 440.223 110.838 440.223ZM412.169 440.223C406.029 440.223 399.582 437.614 392.828 432.395C386.075 427.176 382.698 421.19 382.698 414.436C382.698 408.296 384.233 401.082 387.303 392.793C390.372 384.504 393.903 376.983 397.894 370.229C388.377 380.36 378.707 390.491 368.883 400.622C359.366 410.752 350.003 421.036 340.793 431.474C337.723 435.158 334.04 437 329.742 437C323.909 437 318.383 433.93 313.164 427.79C308.252 421.65 305.796 415.818 305.796 410.292C305.796 408.757 305.95 407.529 306.257 406.608C308.406 400.775 310.862 395.096 313.625 389.57C316.695 383.737 319.764 378.211 322.834 372.992C326.211 367.159 329.742 361.634 333.426 356.415C337.416 350.889 341.407 345.363 345.398 339.837C346.933 337.995 348.315 336.153 349.543 334.311C351.078 332.162 352.459 330.014 353.687 327.865C354.608 326.33 355.068 324.488 355.068 322.339C355.068 320.19 354.915 318.348 354.608 316.813C357.678 312.822 361.822 308.985 367.041 305.301C372.26 301.31 377.325 299.314 382.237 299.314C383.465 299.314 385.461 299.775 388.224 300.696C391.293 301.31 394.056 302.231 396.512 303.459C399.275 304.38 400.657 305.454 400.657 306.682C400.657 307.91 400.043 309.138 398.815 310.366C397.28 311.901 395.591 313.436 393.749 314.971C391.907 316.506 390.219 318.194 388.684 320.036C381.623 327.097 374.869 334.618 368.423 342.6C361.976 350.275 355.836 358.103 350.003 366.085C348.161 368.848 345.245 372.992 341.254 378.518C337.57 383.737 334.193 389.109 331.123 394.635C328.053 400.161 326.518 404.612 326.518 407.989C326.518 411.059 327.9 412.594 330.663 412.594C333.733 412.594 338.184 410.599 344.017 406.608C350.157 402.31 356.757 396.938 363.818 390.491C370.879 383.737 377.786 376.83 384.54 369.769C391.6 362.708 397.74 356.261 402.959 350.428C408.485 344.596 412.322 340.298 414.471 337.535C420.918 329.86 427.211 321.264 433.351 311.748C435.807 308.064 438.724 304.84 442.101 302.077C445.784 299.007 449.775 297.472 454.073 297.472C456.529 297.472 459.599 297.779 463.283 298.393C467.274 298.7 469.269 300.542 469.269 303.919C469.269 305.147 468.809 306.375 467.888 307.603C467.274 308.831 466.506 309.906 465.585 310.827C455.455 321.264 445.784 332.316 436.575 343.982C427.672 355.34 420.151 367.773 414.011 381.281C411.862 385.886 409.713 392.026 407.564 399.701C405.415 407.068 404.341 413.362 404.341 418.581C404.341 423.799 406.336 426.409 410.327 426.409C413.09 426.409 415.853 425.488 418.616 423.646C421.993 421.804 426.597 418.12 432.43 412.594C438.263 406.761 444.403 400.315 450.85 393.254C457.604 385.886 463.897 378.979 469.73 372.532C475.563 365.778 480.014 360.559 483.084 356.875C483.698 356.261 484.312 355.801 484.926 355.494C485.54 354.88 486.154 354.573 486.768 354.573C488.917 354.573 489.991 355.801 489.991 358.257C489.991 359.485 489.684 360.406 489.07 361.02C488.456 361.634 487.842 362.401 487.228 363.322C477.712 374.374 468.195 385.579 458.678 396.938C449.468 408.296 440.105 419.501 430.588 430.553C428.439 433.316 425.83 435.619 422.76 437.46C419.69 439.302 416.16 440.223 412.169 440.223ZM562.996 442.065C558.391 442.065 553.173 440.684 547.34 437.921C541.814 435.465 539.051 431.474 539.051 425.948C539.051 419.501 541.507 411.827 546.419 402.924C551.331 394.021 557.163 384.811 563.917 375.295C570.671 365.471 577.118 356.108 583.258 347.205C589.705 338.302 594.309 330.781 597.072 324.641C595.23 325.562 592.161 327.404 587.863 330.167C583.872 332.623 579.881 335.232 575.89 337.995C571.899 340.451 568.983 342.447 567.141 343.982C553.94 353.805 542.428 363.936 532.604 374.374C523.087 384.811 513.417 396.784 503.594 410.292C501.138 413.976 498.528 417.813 495.765 421.804C493.309 425.795 490.7 429.632 487.937 433.316C486.709 434.851 484.56 436.386 481.49 437.921C478.727 439.456 476.118 440.223 473.662 440.223C469.671 440.223 467.676 438.074 467.676 433.777C467.676 430.093 469.517 424.413 473.201 416.739C477.192 409.064 482.104 400.315 487.937 390.491C493.77 380.667 499.91 370.997 506.356 361.48C512.803 351.656 518.636 342.907 523.855 335.232C529.074 327.251 532.758 321.571 534.907 318.194C534.293 319.115 532.604 320.804 529.841 323.26C527.078 325.409 524.315 327.711 521.553 330.167C519.097 332.316 517.255 333.851 516.027 334.772C510.194 340.298 504.514 345.977 498.989 351.81C493.463 357.643 487.937 363.476 482.411 369.308C481.797 369.922 480.569 370.843 478.727 372.071C477.192 373.299 475.811 373.913 474.583 373.913C473.048 373.913 472.28 373.146 472.28 371.611C472.28 370.076 474.429 366.852 478.727 361.941C483.025 357.029 488.397 351.196 494.844 344.442C501.291 337.688 507.891 330.781 514.645 323.72C521.706 316.659 527.846 310.366 533.065 304.84C538.284 299.314 541.814 295.477 543.656 293.328C546.726 289.337 549.949 286.114 553.326 283.658C557.01 281.202 561.308 279.974 566.22 279.974C568.983 279.974 572.36 281.355 576.35 284.118C580.341 286.574 582.337 289.491 582.337 292.868C582.337 294.096 582.03 294.863 581.416 295.17C572.206 302.845 563.15 311.901 554.247 322.339C545.651 332.776 537.516 343.521 529.841 354.573C522.166 365.625 515.106 375.909 508.659 385.425C516.027 377.137 524.315 369.001 533.525 361.02C542.735 352.731 551.638 345.056 560.233 337.995L592.928 311.287C595.077 309.445 597.226 307.45 599.375 305.301C601.831 303.152 604.133 301.31 606.282 299.775C608.738 298.24 611.347 297.626 614.11 297.933C617.18 297.933 620.25 297.933 623.32 297.933C626.697 297.933 629.92 298.854 632.99 300.696C636.367 302.538 638.056 305.454 638.056 309.445C638.056 313.436 636.981 316.506 634.832 318.655C632.99 320.497 630.841 322.646 628.385 325.102C623.167 330.014 616.72 336.46 609.045 344.442C601.677 352.424 594.309 361.02 586.942 370.229C579.574 379.439 573.434 388.802 568.522 398.319C563.61 407.529 561.154 416.125 561.154 424.106C561.154 425.027 561.154 425.948 561.154 426.869C561.154 427.79 561.308 428.711 561.615 429.632C568.062 427.176 575.122 423.185 582.797 417.66C590.779 411.827 598.761 405.38 606.743 398.319C614.724 391.258 622.092 384.197 628.846 377.137C635.907 370.076 641.74 363.783 646.344 358.257C646.958 357.643 647.572 356.875 648.186 355.954C649.107 355.033 650.182 354.573 651.41 354.573C652.945 354.573 653.712 355.647 653.712 357.796C653.712 359.024 653.252 360.406 652.331 361.941C646.498 369.615 638.67 378.672 628.846 389.109C619.022 399.547 608.892 409.524 598.454 419.041C588.016 428.251 578.653 435.312 570.364 440.223C568.215 441.451 565.759 442.065 562.996 442.065Z" fill="#F05654"/>
<path d="M33.1949 508.877V496.444H161.21C191.295 496.444 214.32 503.658 230.283 518.087C246.554 532.209 254.689 551.089 254.689 574.727V589.002C254.689 607.728 249.47 623.692 239.033 636.893C228.902 649.786 214.32 658.689 195.286 663.601L254.229 772.276C258.22 779.644 261.136 784.863 262.978 787.932C264.82 790.695 266.508 792.537 268.043 793.458C269.885 794.072 272.341 794.533 275.411 794.84L296.133 797.603V809.575H226.599L153.843 667.745H108.715V772.276C108.715 783.021 109.175 789.314 110.096 791.156C111.017 792.998 113.934 794.226 118.846 794.84L144.172 797.603V809.575H33.1949V797.603L58.5217 794.84C63.4336 794.226 66.35 792.998 67.271 791.156C68.1919 789.314 68.6524 783.021 68.6524 772.276V533.744C68.6524 522.999 68.1919 516.706 67.271 514.864C66.35 513.022 63.4336 511.794 58.5217 511.18L33.1949 508.877ZM161.21 511.18H108.715V653.01H161.21C177.174 653.01 189.607 647.944 198.51 637.814C207.72 627.376 212.324 611.719 212.324 590.844V572.885C212.324 552.01 207.72 536.507 198.51 526.376C189.607 516.245 177.174 511.18 161.21 511.18ZM509.382 757.08C503.856 777.955 493.418 792.691 478.069 801.287C463.026 809.882 446.295 814.18 427.875 814.18C393.799 814.18 368.319 803.896 351.435 783.328C334.55 762.452 326.108 734.669 326.108 699.979V690.77C326.108 656.387 334.243 628.911 350.514 608.342C366.784 587.467 390.423 577.029 421.429 577.029C438.006 577.029 453.049 580.406 466.556 587.16C480.371 593.914 491.269 603.891 499.251 617.092C507.54 630.292 511.684 646.716 511.684 666.364C511.684 675.574 510.763 685.244 508.921 695.375H367.552V709.189C367.552 741.423 372.464 764.601 382.287 778.723C392.418 792.537 408.689 799.445 431.099 799.445C445.221 799.445 456.886 795.761 466.096 788.393C475.613 781.025 481.906 768.285 484.976 750.172L509.382 757.08ZM421.429 591.765C403.316 591.765 389.809 598.672 380.906 612.487C372.003 626.301 367.552 649.019 367.552 680.639H471.161V679.257C471.775 675.267 472.236 671.429 472.543 667.745C472.85 663.754 473.003 660.224 473.003 657.154C473.003 634.13 468.245 617.552 458.728 607.422C449.211 596.984 436.778 591.765 421.429 591.765ZM744.87 812.799C720.925 812.799 706.803 801.747 702.506 779.644C691.761 791.923 679.942 800.826 667.048 806.352C654.154 811.571 641.414 814.18 628.828 814.18C607.338 814.18 591.528 808.194 581.398 796.221C571.267 784.249 566.201 769.82 566.201 752.935C566.201 734.823 572.341 720.548 584.621 710.11C597.208 699.365 618.85 693.993 649.55 693.993H701.585V656.694C701.585 632.134 697.287 615.25 688.691 606.04C680.402 596.523 669.044 591.765 654.615 591.765C645.405 591.765 637.116 593.607 629.749 597.291C622.381 600.975 617.009 607.728 613.632 617.552C610.562 627.069 610.255 641.037 612.711 659.457L576.332 653.931C574.797 639.502 576.639 626.608 581.858 615.25C587.384 603.584 596.287 594.374 608.566 587.621C621.153 580.56 636.809 577.029 655.536 577.029C677.946 577.029 695.138 580.867 707.11 588.542C719.083 595.909 727.372 605.58 731.977 617.552C736.889 629.525 739.345 642.572 739.345 656.694V760.303C739.345 775.96 741.033 785.783 744.41 789.774C748.094 793.765 752.085 795.761 756.383 795.761C759.146 795.761 762.062 795.147 765.132 793.919C768.202 792.384 771.579 790.081 775.263 787.011L783.551 798.524C778.946 802.515 773.421 805.891 766.974 808.654C760.834 811.417 753.466 812.799 744.87 812.799ZM641.721 794.84C650.317 794.84 659.527 792.537 669.351 787.932C679.481 783.021 690.226 773.35 701.585 758.922V708.729H654.615C637.423 708.729 624.837 712.259 616.855 719.32C609.18 726.074 605.343 736.665 605.343 751.093C605.343 764.908 608.259 775.653 614.092 783.328C620.232 791.002 629.442 794.84 641.721 794.84ZM1041.9 798.063V809.575H970.988V773.197C961.471 787.318 950.88 797.756 939.214 804.51C927.855 810.957 915.115 814.18 900.994 814.18C874.592 814.18 854.024 804.356 839.288 784.709C824.86 764.755 817.645 736.665 817.645 700.44V691.23C817.645 656.54 826.088 628.911 842.972 608.342C860.164 587.467 883.649 577.029 913.427 577.029C935.223 577.029 953.643 583.783 968.685 597.291V506.114C968.685 495.37 968.225 489.076 967.304 487.234C966.383 485.392 963.466 484.164 958.554 483.55L933.228 481.248V468.815H1006.45V772.276C1006.45 783.021 1006.91 789.314 1007.83 791.156C1008.75 792.998 1011.66 794.226 1016.58 794.84L1041.9 798.063ZM859.089 714.254C859.089 743.112 863.234 764.294 871.522 777.802C880.118 791.309 891.937 798.063 906.98 798.063C916.804 798.063 926.934 794.993 937.372 788.853C947.81 782.714 958.247 770.28 968.685 751.554V619.855C955.178 601.742 937.526 592.686 915.729 592.686C896.082 592.686 881.653 600.207 872.443 615.25C863.541 630.292 859.089 651.014 859.089 677.416V714.254ZM1124.83 530.06C1117.46 530.06 1111.32 527.757 1106.41 523.152C1101.8 518.241 1099.5 511.947 1099.5 504.272C1099.5 496.905 1101.8 490.918 1106.41 486.313C1111.32 481.709 1117.46 479.406 1124.83 479.406C1132.19 479.406 1138.18 481.709 1142.79 486.313C1147.7 490.918 1150.15 496.905 1150.15 504.272C1150.15 511.947 1147.7 518.241 1142.79 523.152C1138.18 527.757 1132.19 530.06 1124.83 530.06ZM1070.95 594.067V581.634H1144.17V772.276C1144.17 783.021 1144.63 789.314 1145.55 791.156C1146.47 792.998 1149.39 794.226 1154.3 794.84L1179.62 797.603V809.575H1070.95V797.603L1096.28 794.84C1101.19 794.226 1104.1 792.998 1105.03 791.156C1105.95 789.314 1106.41 783.021 1106.41 772.276V618.934C1106.41 608.189 1105.95 601.896 1105.03 600.054C1104.1 598.212 1101.19 596.984 1096.28 596.37L1070.95 594.067ZM1465.97 797.603V809.575H1357.29V797.603L1382.62 794.84C1387.53 794.226 1390.45 792.998 1391.37 791.156C1392.29 789.314 1392.75 783.021 1392.75 772.276V657.615C1392.75 634.897 1389.07 618.934 1381.7 609.724C1374.33 600.207 1363.74 595.449 1349.93 595.449C1339.79 595.449 1328.59 598.519 1316.31 604.659C1304.03 610.798 1292.52 622.771 1281.77 640.577V772.276C1281.77 783.021 1282.23 789.314 1283.15 791.156C1284.08 792.998 1286.99 794.226 1291.9 794.84L1317.23 797.603V809.575H1208.56V797.603L1233.88 794.84C1238.79 794.226 1241.71 792.998 1242.63 791.156C1243.55 789.314 1244.01 783.021 1244.01 772.276V618.934C1244.01 608.189 1243.55 601.896 1242.63 600.054C1241.71 598.212 1238.79 596.984 1233.88 596.37L1208.56 594.067V581.634H1279.47V618.934C1290.52 604.198 1302.96 593.607 1316.77 587.16C1330.89 580.406 1345.01 577.029 1359.13 577.029C1381.85 577.029 1399.35 584.09 1411.63 598.212C1424.22 612.026 1430.51 631.674 1430.51 657.154V772.276C1430.51 783.021 1430.97 789.314 1431.89 791.156C1432.81 792.998 1435.73 794.226 1440.64 794.84L1465.97 797.603ZM1707.35 836.284C1707.35 860.843 1698.29 879.569 1680.18 892.463C1662.38 905.664 1637.51 912.264 1605.58 912.264C1570.58 912.264 1544.95 906.124 1528.68 893.844C1512.41 881.872 1503.97 866.676 1503.35 848.256L1537.43 841.349C1536.2 858.233 1540.65 871.741 1550.78 881.872C1561.22 892.309 1579.49 897.528 1605.58 897.528C1628.91 897.528 1647.64 893.23 1661.76 884.635C1676.19 876.039 1683.4 863.452 1683.4 846.875C1683.4 834.595 1679.26 825.385 1670.97 819.246C1662.68 813.106 1649.02 810.036 1629.99 810.036H1575.19C1554.62 810.036 1540.19 805.738 1531.9 797.142C1523.62 788.239 1519.47 778.416 1519.47 767.671C1519.47 758.768 1521.62 750.479 1525.92 742.805C1530.52 734.823 1537.74 726.995 1547.56 719.32C1535.28 713.487 1525.3 705.045 1517.63 693.993C1509.95 682.634 1506.12 668.973 1506.12 653.01C1506.12 636.125 1509.95 622.157 1517.63 611.105C1525.61 599.747 1536.05 591.304 1548.94 585.779C1562.14 579.946 1576.72 577.029 1592.69 577.029H1600.52C1617.4 577.029 1632.44 580.099 1645.64 586.239L1712.41 563.215L1717.48 597.751H1663.6C1670.66 603.891 1676.19 611.566 1680.18 620.776C1684.48 629.985 1686.63 640.73 1686.63 653.01C1686.63 669.28 1682.64 683.095 1674.65 694.454C1666.98 705.812 1656.7 714.408 1643.8 720.241C1630.91 725.767 1616.48 728.53 1600.52 728.53H1592.69C1587.47 728.53 1582.4 728.223 1577.49 727.609C1572.58 726.995 1567.82 726.074 1563.22 724.846C1556.46 729.451 1551.55 734.209 1548.48 739.121C1545.72 744.033 1544.34 749.098 1544.34 754.317C1544.34 760.457 1546.49 765.369 1550.78 769.052C1555.39 772.736 1562.6 774.578 1572.43 774.578H1632.29C1656.54 774.578 1675.12 779.797 1688.01 790.235C1700.9 800.673 1707.35 816.022 1707.35 836.284ZM1600.52 713.794C1608.81 713.794 1616.33 711.952 1623.08 708.268C1630.14 704.584 1635.82 698.444 1640.12 689.849C1644.42 680.946 1646.57 668.666 1646.57 653.01C1646.57 637.046 1644.42 624.767 1640.12 616.171C1635.82 607.268 1630.14 600.975 1623.08 597.291C1616.33 593.607 1608.81 591.765 1600.52 591.765H1592.69C1584.4 591.765 1576.72 593.607 1569.66 597.291C1562.6 600.975 1556.92 607.268 1552.63 616.171C1548.33 624.767 1546.18 637.046 1546.18 653.01C1546.18 668.666 1548.33 680.946 1552.63 689.849C1556.92 698.444 1562.6 704.584 1569.66 708.268C1576.72 711.952 1584.4 713.794 1592.69 713.794H1600.52Z" fill="#24B572"/>
<path d="M717.947 355.375H765.814C766.951 352.208 766.951 349.285 765.814 346.605H717.947V319.931C715.917 319.038 713.887 319.038 711.857 319.931C708.853 325.534 705.524 330.447 701.87 334.669C698.216 338.81 695.13 341.733 692.613 343.439C690.177 345.063 686.645 347.174 682.016 349.772C681.448 351.477 681.448 353.345 682.016 355.375H696.876V419.198C696.876 442.989 706.701 454.885 726.351 454.885C734.715 454.885 742.429 452.733 749.493 448.43C756.558 444.045 761.836 438.686 765.327 432.352C764.596 430.566 763.257 429.591 761.308 429.429C753.675 436.25 746.286 439.66 739.14 439.66C725.011 439.66 717.947 433.245 717.947 420.416V355.375ZM759.846 424.192C764.962 424.841 768.616 427.643 770.808 432.596C766.586 440.31 760.455 446.765 752.416 451.962C744.378 457.24 735.689 459.879 726.351 459.879C703.453 459.879 692.004 446.319 692.004 419.198V360.247H677.022C675.804 355.943 675.804 351.477 677.022 346.849C681.976 344.007 685.751 341.693 688.35 339.906C690.948 338.039 694.196 335.034 698.094 330.893C701.991 326.752 705.442 321.758 708.447 315.912C716.08 312.745 724.971 312.907 735.121 316.399V341.612H770.565C773.163 347.62 773.163 353.832 770.565 360.247H735.121V420.416C735.121 428.211 737.922 432.799 743.525 434.179C748.397 433.124 753.837 429.794 759.846 424.192ZM868.613 445.75C867.639 447.618 867.639 449.607 868.613 451.718C889.725 451.231 910.837 451.231 931.949 451.718C933.167 449.77 933.167 447.78 931.949 445.75C912.218 444.776 902.271 440.878 902.108 434.057L900.768 372.792C900.444 361.668 898.657 353.548 895.409 348.432C892.161 343.236 886.558 340.637 878.601 340.637C865.122 340.637 849.085 349.935 830.49 368.529V269.019C829.84 267.72 828.419 266.624 826.227 265.73C814.94 271.09 803.207 274.419 791.027 275.718C790.54 277.748 790.54 279.656 791.027 281.443C800.365 281.93 807.267 283.594 811.733 286.436V434.057C811.57 440.066 804.587 443.964 790.783 445.75C789.809 447.618 789.809 449.607 790.783 451.718C812.058 450.906 833.251 450.906 854.363 451.718C855.418 449.607 855.418 447.618 854.363 445.75C839.26 444.126 831.627 440.229 831.464 434.057C830.815 416.762 830.49 397.518 830.49 376.324C846.73 361.952 859.519 354.766 868.857 354.766C877.708 354.766 882.133 362.114 882.133 376.812L881.889 434.057C881.889 438.036 880.671 440.838 878.235 442.462C875.799 444.004 872.592 445.101 868.613 445.75ZM864.594 455.981C862.645 451.191 862.645 446.278 864.594 441.244C867.273 441.244 869.994 440.553 872.754 439.173C875.515 437.711 876.896 436.006 876.896 434.057L877.139 376.812C877.139 367.961 875.393 362.561 871.902 360.612C865.893 362.074 857.814 366.459 847.664 373.767C847.664 395.691 847.989 415.706 848.638 433.814C848.963 438.117 852.211 440.594 858.382 441.244C860.412 446.278 860.412 451.191 858.382 455.981C834.591 455.169 810.637 455.169 786.52 455.981C784.572 451.191 784.572 446.278 786.52 441.244C799.837 439.457 806.577 436.981 806.739 433.814V289.481C801.299 287.776 794.559 286.68 786.52 286.193C784.734 281.402 784.734 276.246 786.52 270.724C798.863 270.075 812.667 266.421 827.932 259.762C836.783 260.412 843.36 263.091 847.664 267.801V347.093C859.113 339.46 872.348 335.643 887.37 335.643C898.332 335.643 906.128 338.648 910.756 344.657C915.466 350.584 917.902 359.963 918.064 372.792C918.389 404.623 918.795 425.044 919.282 434.057C919.444 437.387 925.169 439.782 936.456 441.244C938.323 446.603 938.161 451.515 935.968 455.981C912.177 455.494 888.385 455.494 864.594 455.981ZM995.407 382.78C997.437 375.309 1001.62 368.042 1007.95 360.978C1014.29 353.913 1020.74 350.381 1027.32 350.381C1035.03 350.381 1038.89 352.858 1038.89 357.811C1038.89 362.277 1036.78 365.119 1032.56 366.337C1031.42 367.961 1031.42 369.869 1032.56 372.061C1036.94 372.061 1040.51 370.722 1043.27 368.042C1046.12 365.362 1047.54 361.627 1047.54 356.836C1047.54 351.802 1045.99 347.864 1042.91 345.022C1039.9 342.099 1035.97 340.637 1031.09 340.637C1024.76 340.637 1018.39 343.195 1011.97 348.311C1005.64 353.345 1000.12 358.988 995.407 365.241V344.291C994.757 342.992 993.377 341.936 991.266 341.124C980.385 346.24 967.799 349.569 953.508 351.112C953.02 353.061 953.02 354.969 953.508 356.836C964.47 357.324 972.305 358.988 977.015 361.83C977.665 392.118 977.583 416.397 976.771 434.666C976.609 440.675 969.707 444.573 956.065 446.359C954.847 448.552 954.847 450.46 956.065 452.084C977.34 451.109 1000.52 451.109 1025.61 452.084C1026.75 450.46 1026.75 448.552 1025.61 446.359C1006.37 444.573 996.665 440.675 996.503 434.666C995.772 418.183 995.407 400.887 995.407 382.78ZM1013.68 434.423C1013.84 437.59 1019.32 440.066 1030.12 441.853C1032.8 447.212 1032.64 452.368 1029.63 457.321C995.204 456.184 969.179 455.941 951.559 456.59C948.554 451.8 948.392 446.887 951.072 441.853C964.713 440.066 971.615 437.59 971.778 434.423C972.752 411.281 972.833 388.058 972.021 364.753C966.662 363.129 959.273 362.074 949.854 361.587C947.986 356.715 947.986 351.559 949.854 346.118C963.414 345.306 977.786 341.652 992.971 335.156C1001.74 336.131 1008.32 338.77 1012.7 343.073C1019.52 338.12 1025.65 335.643 1031.09 335.643C1037.43 335.643 1042.58 337.511 1046.56 341.246C1050.54 344.981 1052.53 350.178 1052.53 356.836C1052.53 363.17 1050.66 368.123 1046.93 371.696C1043.19 375.269 1038.4 377.055 1032.56 377.055C1027.12 377.055 1022.57 375.228 1018.91 371.574C1015.58 376.04 1013.51 380.1 1012.7 383.754C1012.7 401.375 1013.03 418.264 1013.68 434.423ZM1133.16 348.554C1141.53 348.554 1148.14 352.574 1153.02 360.612C1157.97 368.57 1160.45 380.953 1160.45 397.761C1160.45 414.57 1157.97 426.952 1153.02 434.91C1148.14 442.868 1141.53 446.846 1133.16 446.846C1128.53 446.846 1124.31 445.872 1120.49 443.923C1116.76 441.974 1113.55 438.97 1110.87 434.91C1108.27 430.85 1106.24 425.775 1104.78 419.685C1103.32 413.514 1102.59 406.206 1102.59 397.761C1102.59 389.398 1103.32 382.13 1104.78 375.959C1106.24 369.707 1108.27 364.591 1110.87 360.612C1113.55 356.552 1116.76 353.548 1120.49 351.599C1124.31 349.569 1128.53 348.554 1133.16 348.554ZM1133.16 454.885C1140.71 454.885 1147.49 453.464 1153.5 450.622C1159.51 447.78 1164.63 443.842 1168.85 438.808C1173.15 433.692 1176.44 427.643 1178.72 420.66C1180.99 413.676 1182.13 406.044 1182.13 397.761C1182.13 389.479 1180.99 381.846 1178.72 374.863C1176.44 367.88 1173.15 361.871 1168.85 356.836C1164.63 351.721 1159.51 347.742 1153.5 344.9C1147.49 342.058 1140.71 340.637 1133.16 340.637C1125.12 340.637 1117.86 342.058 1111.36 344.9C1104.86 347.742 1099.34 351.68 1094.8 356.715C1090.33 361.749 1086.88 367.798 1084.44 374.863C1082.01 381.846 1080.79 389.479 1080.79 397.761C1080.79 406.125 1082.01 413.798 1084.44 420.781C1086.88 427.764 1090.33 433.814 1094.8 438.929C1099.34 443.964 1104.86 447.902 1111.36 450.744C1117.86 453.505 1125.12 454.885 1133.16 454.885ZM1137.43 335.643C1147.25 335.643 1155.98 337.146 1163.61 340.15C1171.33 343.154 1177.82 347.417 1183.1 352.939C1188.38 358.379 1192.4 364.916 1195.16 372.549C1197.92 380.181 1199.3 388.586 1199.3 397.761C1199.3 406.856 1197.92 415.219 1195.16 422.852C1192.4 430.485 1188.38 437.062 1183.1 442.583C1177.9 448.024 1171.45 452.246 1163.73 455.251C1156.02 458.336 1147.25 459.879 1137.43 459.879C1127.68 459.879 1118.95 458.336 1111.24 455.251C1103.61 452.246 1097.15 448.024 1091.87 442.583C1086.68 437.062 1082.7 430.525 1079.94 422.974C1077.17 415.341 1075.79 406.937 1075.79 397.761C1075.79 388.586 1077.17 380.181 1079.94 372.549C1082.7 364.916 1086.72 358.379 1091.99 352.939C1097.27 347.417 1103.73 343.154 1111.36 340.15C1118.99 337.146 1127.68 335.643 1137.43 335.643ZM1119.76 397.761C1119.76 423.989 1125.65 438.523 1137.43 441.365C1149.44 438.523 1155.45 423.989 1155.45 397.761C1155.45 371.777 1149.44 357.202 1137.43 354.035C1125.65 357.202 1119.76 371.777 1119.76 397.761ZM1306.73 421.878C1307.38 401.578 1307.38 381.237 1306.73 360.856C1306.73 358.014 1300.6 355.578 1288.33 353.548C1286.47 348.595 1286.47 343.682 1288.33 338.81H1340.95C1343.23 339.703 1344.85 340.678 1345.82 341.733C1346.88 342.789 1347.81 344.332 1348.63 346.362C1348.63 347.823 1348.42 350.138 1348.02 353.304C1347.61 356.471 1347.41 358.988 1347.41 360.856C1346.6 387.571 1346.6 410.834 1347.41 430.647C1353.25 432.515 1359.43 433.611 1365.92 433.936C1367.71 438.726 1367.71 443.883 1365.92 449.404C1355.28 450.054 1342.13 453.708 1326.46 460.366C1317.61 459.717 1311.03 457.037 1306.73 452.327V449.161C1295.6 456.306 1282.41 459.879 1267.14 459.879C1256.1 459.879 1248.26 456.875 1243.63 450.866C1239.01 444.857 1236.61 435.438 1236.45 422.608C1236.61 402.227 1236.61 381.643 1236.45 360.856C1236.45 358.014 1230.28 355.578 1217.93 353.548C1216.15 348.595 1216.15 343.682 1217.93 338.81H1270.8C1273.15 339.703 1274.82 340.678 1275.79 341.733C1276.85 342.789 1277.78 344.332 1278.59 346.362C1278.59 347.823 1278.39 350.138 1277.98 353.304C1277.58 356.471 1277.37 358.988 1277.37 360.856C1276.8 379.775 1276.8 399.06 1277.37 418.711C1277.7 427.967 1279.36 433.367 1282.37 434.91C1288.29 433.367 1296.41 429.023 1306.73 421.878ZM1311.72 360.856C1312.21 381.968 1312.21 403.161 1311.72 424.435C1296.62 435.235 1284.97 440.635 1276.76 440.635C1265.64 440.635 1260.08 433.327 1260.08 418.711C1259.59 399.06 1259.59 379.775 1260.08 360.856C1260.08 358.663 1260.28 356.024 1260.69 352.939C1261.17 349.853 1261.42 347.905 1261.42 347.093C1260.52 345.225 1259.35 343.966 1257.88 343.317C1245.87 344.129 1233.89 344.129 1221.95 343.317C1221.3 345.184 1221.3 347.093 1221.95 349.041C1234.78 351.071 1241.28 355.01 1241.44 360.856C1241.6 381.481 1241.6 402.065 1241.44 422.608C1241.28 433.651 1243.19 441.812 1247.17 447.09C1251.15 452.287 1257.8 454.885 1267.14 454.885C1279.4 454.885 1294.26 447.293 1311.72 432.109V449.891C1312.37 451.191 1313.79 452.246 1315.98 453.058C1327.59 448.755 1342.66 445.872 1361.17 444.41C1361.82 442.38 1361.82 440.472 1361.17 438.686C1347.2 438.117 1336.89 436.453 1330.23 433.692C1329.58 404.704 1329.58 380.425 1330.23 360.856C1330.23 358.663 1330.44 356.024 1330.84 352.939C1331.25 349.853 1331.45 347.905 1331.45 347.093C1330.64 345.225 1329.46 343.966 1327.92 343.317C1316.15 343.966 1304.25 343.966 1292.23 343.317C1291.58 345.184 1291.58 347.093 1292.23 349.041C1305.06 351.071 1311.56 355.01 1311.72 360.856ZM1414.28 380.709C1414.28 369.422 1416.39 361.262 1420.61 356.227C1424.91 351.112 1430.31 348.554 1436.81 348.554C1441.6 348.554 1446.02 350.868 1450.08 355.497C1454.23 360.044 1456.3 367.717 1456.3 378.517C1456.3 401.659 1449.96 413.23 1437.3 413.23C1421.95 413.23 1414.28 402.39 1414.28 380.709ZM1413.79 483.752C1413.79 474.82 1418.94 467.593 1429.26 462.071C1435.75 461.422 1445.74 461.097 1459.22 461.097C1468.88 461.097 1475.34 462.883 1478.59 466.456C1481.83 470.029 1483.46 475.226 1483.46 482.047C1483.46 487.893 1480.33 493.942 1474.08 500.195C1467.83 506.528 1458.49 509.695 1446.07 509.695C1434.86 509.695 1426.66 507.137 1421.46 502.022C1416.35 496.987 1413.79 490.897 1413.79 483.752ZM1492.11 345.875C1494.3 346.037 1495.39 347.174 1495.39 349.285C1495.39 351.965 1493.73 353.548 1490.4 354.035C1487.56 354.36 1484.07 353.71 1479.93 352.086C1477.73 351.274 1474.93 350.138 1471.52 348.676C1468.11 347.133 1465.72 346.078 1464.34 345.509C1462.96 344.86 1461.05 344.129 1458.61 343.317C1456.17 342.505 1454.06 341.977 1452.28 341.733C1450.57 341.49 1448.42 341.246 1445.82 341.003C1443.3 340.759 1440.46 340.637 1437.3 340.637C1424.95 340.637 1414.48 344.778 1405.87 353.061C1397.35 361.343 1393.08 370.478 1393.08 380.466C1393.08 396.624 1400.43 408.764 1415.13 416.884C1401.97 426.709 1395.4 435.519 1395.4 443.314C1395.4 453.139 1403.19 459.229 1418.78 461.584C1402.87 470.191 1394.91 480.504 1394.91 492.521C1394.91 500.316 1398.56 506.812 1405.87 512.009C1413.18 517.287 1423.9 519.926 1438.03 519.926C1454.84 519.926 1469.05 514.364 1480.66 503.24C1492.35 492.115 1498.2 480.788 1498.2 469.258C1498.2 450.663 1486.87 441.365 1464.21 441.365C1461.7 441.365 1458.37 441.447 1454.23 441.609C1450.08 441.771 1447.24 441.853 1445.7 441.853C1433.28 441.853 1424.51 441.041 1419.39 439.417C1414.36 437.711 1411.84 435.032 1411.84 431.378C1411.84 426.749 1415.41 422.933 1422.56 419.929C1427.51 420.741 1432.75 421.147 1438.27 421.147C1449.23 421.147 1458.49 417.33 1466.04 409.698C1473.67 402.065 1477.49 391.752 1477.49 378.76C1477.49 368.448 1475.54 360.653 1471.64 355.375L1472.25 354.766C1473.55 355.659 1475.3 356.918 1477.49 358.542C1479.76 360.084 1481.47 361.181 1482.61 361.83C1483.82 362.48 1485.37 363.129 1487.23 363.779C1489.18 364.429 1491.09 364.753 1492.96 364.753C1496.04 364.753 1498.64 363.576 1500.75 361.221C1502.86 358.785 1503.92 355.903 1503.92 352.574C1503.92 349.082 1502.91 346.159 1500.88 343.804C1498.93 341.368 1496 340.15 1492.11 340.15C1490.97 342.261 1490.97 344.169 1492.11 345.875ZM1493.69 369.747C1494.34 372.427 1494.66 375.431 1494.66 378.76C1494.66 393.214 1490.04 404.744 1480.78 413.352C1471.6 421.878 1460.36 426.14 1447.04 426.14H1431.81C1429.46 428.82 1428.77 431.215 1429.74 433.327C1430.8 435.357 1432.75 436.372 1435.59 436.372H1476.39C1502.38 436.372 1515.37 447.334 1515.37 469.258C1515.37 475.104 1513.62 481.235 1510.13 487.649C1506.64 494.064 1501.77 500.032 1495.52 505.554C1489.26 511.157 1481.06 515.785 1470.91 519.439C1460.76 523.093 1449.8 524.92 1438.03 524.92C1422.19 524.92 1410.22 521.834 1402.1 515.663C1393.98 509.573 1389.92 501.859 1389.92 492.521C1389.92 482.209 1395.32 472.627 1406.12 463.777C1395.64 460.123 1390.4 453.302 1390.4 443.314C1390.4 434.707 1395.72 425.978 1406.36 417.127C1394.18 408.358 1388.09 396.137 1388.09 380.466C1388.09 369.341 1392.88 359.11 1402.46 349.772C1412.04 340.353 1423.65 335.643 1437.3 335.643C1447.45 335.643 1454.92 336.171 1459.71 337.227C1464.58 338.282 1470.67 340.312 1477.98 343.317C1481.63 337.876 1486.34 335.156 1492.11 335.156C1497.79 335.156 1502.01 336.821 1504.77 340.15C1507.53 343.479 1508.91 347.62 1508.91 352.574C1508.91 357.364 1507.53 361.424 1504.77 364.753C1502.01 368.083 1498.32 369.747 1493.69 369.747ZM1431.08 483.752C1431.08 488.949 1432.59 493.496 1435.59 497.393C1438.68 501.291 1443.63 503.646 1450.45 504.458C1459.79 503.646 1466.77 500.763 1471.4 495.81C1476.11 490.938 1478.46 486.35 1478.46 482.047C1478.46 477.012 1477.33 473.074 1475.05 470.232C1472.78 467.471 1468.44 466.091 1462.02 466.091C1454.31 466.091 1446.72 466.416 1439.24 467.065C1433.8 471.694 1431.08 477.256 1431.08 483.752ZM1431.57 380.709C1431.57 396.056 1434.9 404.988 1441.56 407.505C1448.05 404.988 1451.3 395.325 1451.3 378.517C1451.3 365.2 1447.89 357.202 1441.07 354.522C1434.74 357.202 1431.57 365.931 1431.57 380.709ZM1606.96 445.75C1605.99 447.618 1605.99 449.607 1606.96 451.718C1628.07 451.231 1649.19 451.231 1670.3 451.718C1671.52 449.77 1671.52 447.78 1670.3 445.75C1650.57 444.776 1640.62 440.878 1640.46 434.057L1639.12 372.792C1638.79 361.668 1637.01 353.548 1633.76 348.432C1630.51 343.236 1624.91 340.637 1616.95 340.637C1603.47 340.637 1587.43 349.935 1568.84 368.529V269.019C1568.19 267.72 1566.77 266.624 1564.58 265.73C1553.29 271.09 1541.56 274.419 1529.38 275.718C1528.89 277.748 1528.89 279.656 1529.38 281.443C1538.71 281.93 1545.62 283.594 1550.08 286.436V434.057C1549.92 440.066 1542.94 443.964 1529.13 445.75C1528.16 447.618 1528.16 449.607 1529.13 451.718C1550.41 450.906 1571.6 450.906 1592.71 451.718C1593.77 449.607 1593.77 447.618 1592.71 445.75C1577.61 444.126 1569.98 440.229 1569.81 434.057C1569.16 416.762 1568.84 397.518 1568.84 376.324C1585.08 361.952 1597.87 354.766 1607.21 354.766C1616.06 354.766 1620.48 362.114 1620.48 376.812L1620.24 434.057C1620.24 438.036 1619.02 440.838 1616.58 442.462C1614.15 444.004 1610.94 445.101 1606.96 445.75ZM1602.94 455.981C1600.99 451.191 1600.99 446.278 1602.94 441.244C1605.62 441.244 1608.34 440.553 1611.1 439.173C1613.86 437.711 1615.25 436.006 1615.25 434.057L1615.49 376.812C1615.49 367.961 1613.74 362.561 1610.25 360.612C1604.24 362.074 1596.16 366.459 1586.01 373.767C1586.01 395.691 1586.34 415.706 1586.99 433.814C1587.31 438.117 1590.56 440.594 1596.73 441.244C1598.76 446.278 1598.76 451.191 1596.73 455.981C1572.94 455.169 1548.99 455.169 1524.87 455.981C1522.92 451.191 1522.92 446.278 1524.87 441.244C1538.19 439.457 1544.93 436.981 1545.09 433.814V289.481C1539.65 287.776 1532.91 286.68 1524.87 286.193C1523.08 281.402 1523.08 276.246 1524.87 270.724C1537.21 270.075 1551.02 266.421 1566.28 259.762C1575.13 260.412 1581.71 263.091 1586.01 267.801V347.093C1597.46 339.46 1610.7 335.643 1625.72 335.643C1636.68 335.643 1644.48 338.648 1649.11 344.657C1653.82 350.584 1656.25 359.963 1656.41 372.792C1656.74 404.623 1657.14 425.044 1657.63 434.057C1657.79 437.387 1663.52 439.782 1674.81 441.244C1676.67 446.603 1676.51 451.515 1674.32 455.981C1650.53 455.494 1626.73 455.494 1602.94 455.981Z" fill="#CA1718"/>
</svg>
